<svg width="1440" height="188" viewBox="0 0 1440 188" fill="none" xmlns="http://www.w3.org/2000/svg">
<path d="M159.013 20.4C160.747 19.0667 162.813 17.7333 165.213 16.4C167.747 15.0667 170.28 13.8667 172.813 12.8C175.347 11.6 177.68 10.6667 179.813 9.99999C181.947 9.19999 183.547 8.8 184.613 8.8C185.68 8.8 186.213 9.13333 186.213 9.79999C186.213 10.3333 185.48 11.0667 184.013 12C182.547 12.9333 180.547 13.9333 178.013 15C175.613 16.0667 172.813 17.2 169.613 18.4C166.413 19.4667 163.08 20.4667 159.613 21.4C155.08 24.6 150.813 28.2 146.813 32.2C142.813 36.2 138.813 40.8 134.813 46C130.947 51.0667 126.947 56.9333 122.813 63.6C118.68 70.2667 114.347 77.8667 109.813 86.4C110.48 86.5333 110.947 86.6 111.213 86.6C111.613 86.6 112.08 86.6 112.613 86.6C116.613 86.6 120.48 85.9333 124.213 84.6C127.947 83.2667 131.347 81.4667 134.413 79.2C137.613 76.9333 140.28 74.3333 142.413 71.4C144.547 68.3333 146.013 65.0667 146.813 61.6C147.08 60.5333 147.413 60 147.813 60C148.213 60 148.413 60.2667 148.413 60.8C148.413 62.2667 147.747 64.4 146.413 67.2C145.213 69.8667 143.747 72.2667 142.013 74.4C138.68 78.4 134.28 81.7333 128.813 84.4C123.347 86.9333 117.947 88.2 112.613 88.2C112.213 88.2 111.747 88.2 111.213 88.2C110.813 88.2 110.08 88.1333 109.013 88C105.947 93.4667 103.547 97.7333 101.813 100.8C100.213 103.867 98.8133 106.333 97.6133 108.2C96.5466 109.933 95.48 111.4 94.4133 112.6C93.48 113.667 92.2133 115.067 90.6133 116.8C86.8799 120.8 82.6133 124.467 77.8133 127.8C73.0133 131.133 67.9466 133.933 62.6133 136.2C57.28 138.467 51.7466 140.2 46.0133 141.4C40.4133 142.733 34.8133 143.4 29.2133 143.4C22.8133 143.4 17.0133 142.533 11.8133 140.8C6.74662 139.2 2.34662 136.867 -1.38672 133.8C-4.98672 130.6 -7.78672 126.867 -9.78672 122.6C-11.7867 118.2 -12.7867 113.267 -12.7867 107.8C-12.7867 101 -11.0534 94.4 -7.58672 88C-3.98672 81.4667 0.746615 75.7333 6.61328 70.8C12.48 65.7333 19.1466 61.6667 26.6133 58.6C34.0799 55.5333 41.8133 54 49.8133 54C58.88 54 66.1466 56.5333 71.6133 61.6C77.08 66.6667 79.8133 73.4667 79.8133 82C79.8133 87.8667 78.48 93.6667 75.8133 99.4C73.1466 105 69.6133 110 65.2133 114.4C60.8133 118.8 55.8133 122.4 50.2133 125.2C44.6133 127.867 38.9466 129.2 33.2133 129.2C30.1466 129.2 27.2799 128.667 24.6133 127.6C21.9466 126.4 19.6133 124.8 17.6133 122.8C15.7466 120.667 14.2133 118.267 13.0133 115.6C11.9466 112.8 11.4133 109.8 11.4133 106.6C11.4133 102.2 12.4799 98 14.6133 94C16.7466 89.8667 19.6133 86.2 23.2133 83C26.8133 79.8 30.8799 77.2667 35.4133 75.4C40.0799 73.5333 44.9466 72.6 50.0133 72.6C51.6133 72.6 53.28 72.8667 55.0133 73.4C56.7466 73.8 58.28 74.4 59.6133 75.2C61.08 76 62.2133 76.8667 63.0133 77.8C63.9466 78.7333 64.4133 79.6667 64.4133 80.6C64.4133 81 64.1466 81.2 63.6133 81.2C63.48 81.2 63.2133 81 62.8133 80.6C60.0133 76.3333 56.08 74.2 51.0133 74.2C46.7466 74.2 42.48 75.2667 38.2133 77.4C33.9466 79.4 30.0799 82.0667 26.6133 85.4C23.2799 88.7333 20.5466 92.5333 18.4133 96.8C16.4133 100.933 15.4133 105.067 15.4133 109.2C15.4133 114.8 17.08 119.267 20.4133 122.6C23.7466 125.8 28.2799 127.4 34.0133 127.4C39.3466 127.4 44.6133 126.067 49.8133 123.4C55.0133 120.733 59.68 117.267 63.8133 113C68.08 108.6 71.4799 103.667 74.0133 98.2C76.68 92.7333 78.0133 87.2667 78.0133 81.8C78.0133 78.0667 77.3466 74.6 76.0133 71.4C74.68 68.2 72.7466 65.4667 70.2133 63.2C67.8133 60.8 64.9466 59 61.6133 57.8C58.28 56.4667 54.6133 55.8 50.6133 55.8C43.1466 55.8 35.88 57.4 28.8133 60.6C21.8799 63.8 15.6799 68.0667 10.2133 73.4C4.87995 78.7333 0.546616 84.8667 -2.78672 91.8C-5.98672 98.7333 -7.58672 105.933 -7.58672 113.4C-7.58672 117.533 -6.72005 121.333 -4.98672 124.8C-3.25338 128.267 -0.853385 131.267 2.21328 133.8C5.27995 136.2 8.87995 138.067 13.0133 139.4C17.2799 140.867 21.9466 141.6 27.0133 141.6C46.7466 141.6 64.4133 131.8 80.0133 112.2C82.0133 109.667 84.5466 106.2 87.6133 101.8C90.8133 97.2667 94.5466 91.8 98.8133 85.4C93.3466 83.1333 89.1466 80 86.2133 76C83.4133 72 82.0133 67.3333 82.0133 62C82.0133 55.7333 83.88 50.1333 87.6133 45.2C91.3466 40.1333 96.8133 36.0667 104.013 33C108.013 31.2667 112.68 29.7333 118.013 28.4C123.48 27.0667 130.547 25.6667 139.213 24.2C141.213 23.8 142.88 23.5333 144.213 23.4C145.547 23.1333 146.68 22.9333 147.613 22.8C148.68 22.5333 149.68 22.3333 150.613 22.2C151.68 21.9333 152.88 21.6667 154.213 21.4L159.013 20.4ZM150.013 23.8C148.28 24.2 146.547 24.6667 144.813 25.2C143.08 25.6 141.28 26 139.413 26.4C131.413 28.2667 124.213 30.6667 117.813 33.6C111.413 36.4 105.947 39.6 101.413 43.2C97.0133 46.6667 93.5466 50.4667 91.0133 54.6C88.6133 58.6 87.4133 62.7333 87.4133 67C87.4133 74.7333 91.48 80.4667 99.6133 84.2C108.413 70.0667 117.48 58 126.813 48C136.28 37.8667 146.28 29.2667 156.813 22.2L150.013 23.8ZM151.784 86C154.05 86 155.784 86.8 156.984 88.4C158.317 89.8667 158.984 91.9333 158.984 94.6C158.984 96.8667 158.517 99.2 157.584 101.6C156.784 104 155.717 106.2 154.384 108.2C153.05 110.067 151.584 111.667 149.984 113C148.384 114.2 146.85 114.8 145.384 114.8C144.184 114.8 143.117 114.4 142.184 113.6C141.384 112.8 140.984 111.733 140.984 110.4C140.984 108.4 141.584 106.733 142.784 105.4C144.117 104.067 146.517 102.533 149.984 100.8C154.65 98.5333 156.984 95.5333 156.984 91.8C156.984 90.4667 156.517 89.4 155.584 88.6C154.784 87.8 153.65 87.4 152.184 87.4C149.517 87.4 146.317 89 142.584 92.2C138.984 95.2667 135.517 99.0667 132.184 103.6C128.85 108 126.05 112.733 123.784 117.8C121.517 122.733 120.384 127 120.384 130.6C120.384 133.4 121.117 135.667 122.584 137.4C124.184 139 126.317 139.8 128.984 139.8C131.117 139.8 133.584 139.067 136.384 137.6C139.317 136.133 142.384 134.067 145.584 131.4C148.784 128.733 152.05 125.533 155.384 121.8C158.85 118.067 162.25 113.933 165.584 109.4C166.25 108.333 166.85 107.8 167.384 107.8C167.65 107.8 167.784 108 167.784 108.4C167.784 108.533 167.317 109.2 166.384 110.4C165.584 111.467 164.517 112.8 163.184 114.4C161.85 116 160.384 117.733 158.784 119.6C157.184 121.467 155.584 123.2 153.984 124.8C148.517 130.8 143.85 135.067 139.984 137.6C136.117 140 132.25 141.2 128.384 141.2C126.117 141.2 123.984 140.733 121.984 139.8C119.984 138.867 118.184 137.6 116.584 136C115.117 134.4 113.917 132.533 112.984 130.4C112.184 128.267 111.784 126 111.784 123.6C111.784 118 113.984 112.333 118.384 106.6C122.784 100.733 128.784 95.6667 136.384 91.4C139.45 89.6667 142.317 88.3333 144.984 87.4C147.65 86.4667 149.917 86 151.784 86ZM198.621 123C194.488 128.867 190.354 133.4 186.221 136.6C182.088 139.667 178.154 141.2 174.421 141.2C170.554 141.2 167.221 139.6 164.421 136.4C161.621 133.2 160.221 129.333 160.221 124.8C160.221 114.667 166.821 105 180.021 95.8C184.421 92.6 188.554 90.2 192.421 88.6C196.421 86.8667 199.888 86 202.821 86C205.488 86 207.554 86.8 209.021 88.4C210.488 90 211.221 92.2 211.221 95C211.221 98.3333 210.088 102.533 207.821 107.6C205.688 112.533 202.888 117.333 199.421 122C200.754 122.8 202.221 123.2 203.821 123.2C206.754 123.2 210.154 121.867 214.021 119.2C217.888 116.4 221.088 113.067 223.621 109.2C224.421 108.267 224.954 107.8 225.221 107.8C225.488 107.8 225.621 107.933 225.621 108.2C225.621 108.6 225.021 109.6 223.821 111.2C222.621 112.8 221.288 114.267 219.821 115.6C214.221 121.333 208.954 124.2 204.021 124.2C202.021 124.2 200.221 123.8 198.621 123ZM208.221 102.8C209.288 100.533 209.821 98 209.821 95.2C209.821 89.8667 207.421 87.2 202.621 87.2C199.688 87.2 196.221 88.8667 192.221 92.2C188.354 95.5333 184.621 99.6 181.021 104.4C177.421 109.067 174.354 114 171.821 119.2C169.421 124.4 168.221 128.933 168.221 132.8C168.221 134.8 168.821 136.467 170.021 137.8C171.221 139 172.754 139.6 174.621 139.6C178.088 139.6 181.754 138.133 185.621 135.2C189.621 132.133 193.621 127.8 197.621 122.2C195.754 120.2 194.821 118.067 194.821 115.8C194.821 114.2 195.154 112.533 195.821 110.8C196.621 109.067 197.554 107.467 198.621 106C199.688 104.4 200.888 103.133 202.221 102.2C203.554 101.267 204.821 100.8 206.021 100.8C207.088 100.8 207.821 101.467 208.221 102.8ZM235.229 116.2C243.896 102.2 248.229 93.6 248.229 90.4C248.229 88.4 247.429 87.4 245.829 87.4C244.362 87.4 241.762 89.4 238.029 93.4C234.296 97.2667 230.362 102.267 226.229 108.4C225.429 109.333 224.962 109.8 224.829 109.8C224.429 109.8 224.229 109.6 224.229 109.2C224.229 108.933 224.362 108.667 224.629 108.4L226.429 106C231.629 98.6667 235.762 93.5333 238.829 90.6C241.896 87.5333 244.496 86 246.629 86C248.896 86 250.762 87 252.229 89C253.829 91 254.629 93.4 254.629 96.2C254.629 98.6 254.096 101.067 253.029 103.6C251.962 106 250.029 109.333 247.229 113.6C251.096 108.267 254.429 103.867 257.229 100.4C260.162 96.8 262.762 93.9333 265.029 91.8C267.296 89.6667 269.296 88.2 271.029 87.4C272.896 86.4667 274.696 86 276.429 86C279.362 86 281.762 87.2 283.629 89.6C285.629 91.8667 286.629 94.7333 286.629 98.2C286.629 99.5333 286.496 100.8 286.229 102C285.962 103.2 285.496 104.6 284.829 106.2C284.162 107.667 283.229 109.333 282.029 111.2C280.962 113.067 279.496 115.4 277.629 118.2C275.629 121.267 273.962 123.8 272.629 125.8C271.429 127.667 270.496 129.2 269.829 130.4C269.296 131.6 268.896 132.6 268.629 133.4C268.496 134.2 268.429 135 268.429 135.8C268.429 138.467 269.762 139.8 272.429 139.8C275.096 139.8 279.162 136.933 284.629 131.2C290.096 125.467 296.029 118 302.429 108.8C302.696 108.133 303.029 107.8 303.429 107.8C303.829 107.8 304.029 108 304.029 108.4C304.029 108.533 303.496 109.333 302.429 110.8C301.496 112.267 300.296 114 298.829 116C297.362 117.867 295.762 119.867 294.029 122C292.429 124.133 291.029 125.933 289.829 127.4C285.562 132.467 282.029 136.067 279.229 138.2C276.562 140.2 274.029 141.2 271.629 141.2C268.562 141.2 266.029 140.067 264.029 137.8C262.162 135.533 261.229 132.733 261.229 129.4C261.229 127.933 261.296 126.667 261.429 125.6C261.696 124.4 262.229 123 263.029 121.4C263.829 119.8 264.962 117.867 266.429 115.6C267.896 113.2 269.896 110.133 272.429 106.4C275.762 101.6 277.896 98.2667 278.829 96.4C279.896 94.4 280.429 92.7333 280.429 91.4C280.429 88.7333 279.029 87.4 276.229 87.4C273.962 87.4 271.229 88.6667 268.029 91.2C264.962 93.6 261.496 97.0667 257.629 101.6C253.896 106.133 249.829 111.733 245.429 118.4C241.162 124.933 236.762 132.267 232.229 140.4C231.029 140.267 230.029 140.133 229.229 140C228.429 140 227.496 140 226.429 140C225.362 140 224.362 140 223.429 140C222.629 140 221.496 140.133 220.029 140.4L235.229 116.2ZM314.154 97C316.954 93.6667 318.887 91.3333 319.954 90C321.154 88.5333 322.354 87 323.554 85.4C324.621 80.8667 326.287 77 328.554 73.8C330.821 70.4667 333.087 68.8 335.354 68.8C336.421 68.8 336.954 69.3333 336.954 70.4C336.954 71.7333 335.954 73.6667 333.954 76.2C332.087 78.7333 329.021 82 324.754 86C324.354 88 324.154 89.7333 324.154 91.2C324.154 92.5333 324.221 93.7333 324.354 94.8C324.487 95.7333 324.687 96.8 324.954 98C325.354 99.2 325.887 100.667 326.554 102.4C327.221 104.133 328.154 106.4 329.354 109.2C330.421 111.467 331.087 113.4 331.354 115C331.754 116.6 331.954 118.133 331.954 119.6C331.954 122.533 331.154 125.333 329.554 128C328.087 130.533 326.021 132.8 323.354 134.8C320.821 136.8 317.754 138.333 314.154 139.4C310.687 140.6 307.021 141.2 303.154 141.2C298.754 141.2 295.221 140 292.554 137.6C289.887 135.067 288.554 131.667 288.554 127.4C288.554 125 289.021 122.533 289.954 120C291.021 117.467 292.287 115.2 293.754 113.2C295.354 111.067 297.087 109.4 298.954 108.2C300.821 106.867 302.687 106.2 304.554 106.2C305.221 106.2 305.821 106.333 306.354 106.6L314.154 97ZM307.554 107.2C308.754 108.267 309.354 109.533 309.354 111C309.354 114.867 306.221 117.467 299.954 118.8C297.287 119.467 295.021 120.867 293.154 123C291.421 125.133 290.554 127.4 290.554 129.8C290.554 132.467 291.487 134.667 293.354 136.4C295.221 138.133 297.554 139 300.354 139C303.154 139 305.887 138.133 308.554 136.4C311.354 134.667 313.821 132.4 315.954 129.6C318.221 126.667 320.021 123.4 321.354 119.8C322.687 116.2 323.354 112.6 323.354 109C323.354 108.2 323.354 107.333 323.354 106.4C323.354 105.333 323.287 104.267 323.154 103.2C323.021 101.333 322.954 99.8 322.954 98.6C322.954 97.2667 322.954 96.0667 322.954 95C322.954 93.5333 322.954 92.3333 322.954 91.4C322.954 90.3333 323.087 89.0667 323.354 87.6C319.887 91.8667 316.954 95.5333 314.554 98.6C312.287 101.533 309.954 104.4 307.554 107.2ZM539.368 22.2C535.101 25.4 531.235 28.8 527.768 32.4C524.435 36 521.035 40.3333 517.568 45.4C514.235 50.4667 510.701 56.6 506.968 63.8C503.368 70.8667 499.168 79.5333 494.368 89.8C491.835 95 489.168 99.7333 486.368 104C483.568 108.267 480.435 112.133 476.968 115.6C473.635 119.067 469.901 122.267 465.768 125.2C461.768 128 457.235 130.667 452.168 133.2C438.968 139.733 427.035 143 416.368 143C406.101 143 397.968 140.467 391.968 135.4C385.968 130.2 382.968 123.2 382.968 114.4C382.968 106.667 385.835 98.7333 391.568 90.6C391.301 89.8 391.168 89.1333 391.168 88.6C391.168 88.0667 391.168 87.4667 391.168 86.8C391.168 80.1333 392.501 73.6 395.168 67.2C397.835 60.6667 401.568 54.4667 406.368 48.6C411.168 42.7333 416.768 37.3333 423.168 32.4C429.701 27.3333 436.768 23 444.368 19.4C451.968 15.6667 459.968 12.8 468.368 10.8C476.768 8.66666 485.301 7.6 493.968 7.6C502.768 7.6 511.168 8.66666 519.168 10.8C527.168 12.8 534.168 15.7333 540.168 19.6C546.435 15.7333 552.101 12.9333 557.168 11.2C562.235 9.46666 567.301 8.6 572.368 8.6C576.501 8.6 580.301 9.33333 583.768 10.8C587.235 12.1333 590.235 14.0667 592.768 16.6C595.301 19 597.235 21.9333 598.568 25.4C600.035 28.8667 600.768 32.6 600.768 36.6C600.768 38.4667 600.701 40.3333 600.568 42.2C600.435 44.0667 600.168 45.7333 599.768 47.2C599.501 48.6667 599.168 49.8667 598.768 50.8C598.501 51.7333 598.168 52.2 597.768 52.2C597.368 52.2 597.168 51.9333 597.168 51.4C597.168 50.8667 597.235 50.3333 597.368 49.8C598.035 47.4 598.435 45.3333 598.568 43.6C598.835 41.8667 598.968 39.9333 598.968 37.8C598.968 29.4 596.501 22.7333 591.568 17.8C586.768 12.8667 580.235 10.4 571.968 10.4C567.301 10.4 562.501 11.2667 557.568 13C552.635 14.6 547.368 17.1333 541.768 20.6C547.101 24.4667 550.968 28.3333 553.368 32.2C555.768 36.0667 556.968 40.3333 556.968 45C556.968 51.8 554.301 57.5333 548.968 62.2C543.768 66.7333 536.635 69.6667 527.568 71C535.568 73.4 541.635 77.3333 545.768 82.8C550.035 88.1333 552.168 94.6 552.168 102.2C552.168 107.8 550.835 113.133 548.168 118.2C545.635 123.267 542.168 127.733 537.768 131.6C533.501 135.467 528.435 138.533 522.568 140.8C516.835 143.067 510.768 144.2 504.368 144.2C498.235 144.2 493.301 142.6 489.568 139.4C485.968 136.333 484.168 132.2 484.168 127C484.168 122.867 485.235 118.6 487.368 114.2C489.501 109.8 492.235 105.8 495.568 102.2C498.901 98.6 502.568 95.6667 506.568 93.4C510.701 91.1333 514.701 90 518.568 90C522.835 90 526.368 91.3333 529.168 94C531.968 96.6667 533.368 99.9333 533.368 103.8C533.368 105.133 533.101 106.733 532.568 108.6C532.168 110.333 531.635 112 530.968 113.6C530.301 115.2 529.568 116.533 528.768 117.6C528.101 118.667 527.501 119.2 526.968 119.2C526.568 119.2 526.368 118.933 526.368 118.4C526.368 118.267 526.701 117.667 527.368 116.6C528.701 114.867 529.768 112.8 530.568 110.4C531.368 108 531.768 105.867 531.768 104C531.768 100.533 530.501 97.6 527.968 95.2C525.568 92.8 522.435 91.6 518.568 91.6C514.835 91.6 511.035 92.7333 507.168 95C503.301 97.1333 499.768 99.9333 496.568 103.4C493.501 106.867 490.968 110.733 488.968 115C486.968 119.267 485.968 123.4 485.968 127.4C485.968 131.667 487.501 135.2 490.568 138C493.635 140.8 497.435 142.2 501.968 142.2C506.901 142.2 511.768 140.867 516.568 138.2C521.368 135.533 525.635 132 529.368 127.6C533.101 123.2 536.101 118.267 538.368 112.8C540.768 107.2 541.968 101.533 541.968 95.8C541.968 82.8667 536.301 74.7333 524.968 71.4C523.635 71.6667 521.901 71.8667 519.768 72C517.635 72.1333 515.635 72.2 513.768 72.2C511.368 72.2 509.701 72.1333 508.768 72C507.835 71.7333 507.368 71.3333 507.368 70.8C507.368 69.6 509.501 69 513.768 69C515.235 69 516.768 69.0667 518.368 69.2C519.968 69.3333 522.368 69.7333 525.568 70.4C528.901 69.6 531.901 68.3333 534.568 66.6C537.368 64.7333 539.768 62.5333 541.768 60C543.768 57.3333 545.301 54.4 546.368 51.2C547.568 48 548.168 44.6667 548.168 41.2C548.168 37.3333 547.435 33.8667 545.968 30.8C544.635 27.7333 542.435 24.8667 539.368 22.2ZM537.768 21C532.835 17.4 526.501 14.6 518.768 12.6C511.035 10.4667 502.835 9.4 494.168 9.4C482.701 9.4 471.501 11.4667 460.568 15.6C449.635 19.6 439.701 25.0667 430.768 32C421.835 38.9333 414.235 47 407.968 56.2C401.835 65.4 397.835 75.0667 395.968 85.2C399.168 81.8667 403.168 78.8 407.968 76C412.768 73.0667 417.435 71 421.968 69.8C424.501 65.2667 427.501 61.1333 430.968 57.4C434.435 53.6667 438.035 50.4667 441.768 47.8C445.635 45.1333 449.568 43.0667 453.568 41.6C457.701 40.1333 461.701 39.4 465.568 39.4C470.235 39.4 474.035 40.9333 476.968 44C480.035 46.9333 481.568 50.8 481.568 55.6C481.568 61.2 479.968 67.3333 476.768 74C473.568 80.6667 469.168 87.2 463.568 93.6C449.168 109.6 434.635 117.6 419.968 117.6C412.368 117.6 406.101 115.467 401.168 111.2C396.368 106.933 393.235 100.933 391.768 93.2C387.101 100.4 384.768 107.4 384.768 114.2C384.768 122.6 387.568 129.267 393.168 134.2C398.768 139 406.368 141.4 415.968 141.4C421.968 141.4 427.635 140.533 432.968 138.8C438.301 137.067 443.501 134.333 448.568 130.6C453.768 126.733 458.835 121.733 463.768 115.6C468.835 109.467 474.101 102.067 479.568 93.4C485.701 83.4 491.301 74.6667 496.368 67.2C501.435 59.6 506.235 53 510.768 47.4C515.435 41.6667 519.901 36.7333 524.168 32.6C528.568 28.3333 533.101 24.4667 537.768 21ZM395.568 91.4C395.568 99 397.768 105 402.168 109.4C406.568 113.8 412.501 116 419.968 116C427.701 116 435.501 113.667 443.368 109C451.235 104.2 458.568 97.4 465.368 88.6C470.035 82.7333 473.568 77 475.968 71.4C478.501 65.6667 479.768 60.4 479.768 55.6C479.768 51.4667 478.501 48 475.968 45.2C473.435 42.4 470.301 41 466.568 41C460.435 41 453.968 43.4667 447.168 48.4C440.501 53.3333 434.435 60 428.968 68.4C429.768 68.1333 430.435 68 430.968 68C431.635 68 432.435 68 433.368 68C439.368 68 444.101 69.3333 447.568 72C451.168 74.6667 452.968 78.2667 452.968 82.8C452.968 84.6667 452.701 85.6 452.168 85.6C451.635 85.6 451.368 84.9333 451.368 83.6C451.501 79.3333 449.835 75.9333 446.368 73.4C443.035 70.8667 438.501 69.6 432.768 69.6C431.968 69.6 431.168 69.6667 430.368 69.8C429.701 69.8 428.901 69.8667 427.968 70C423.301 78.2667 420.968 85.3333 420.968 91.2C420.968 94 421.701 96.3333 423.168 98.2C424.768 100.067 426.701 101 428.968 101C429.368 101 429.635 100.933 429.768 100.8H430.368C430.768 100.8 430.968 101 430.968 101.4C430.968 102.067 430.301 102.4 428.968 102.4C425.635 102.4 422.835 100.867 420.568 97.8C418.301 94.7333 417.168 90.8667 417.168 86.2C417.168 81.6667 418.435 76.8 420.968 71.6C416.301 73.0667 411.701 75.2667 407.168 78.2C402.768 81.1333 398.901 84.5333 395.568 88.4V91.4ZM609.459 116.2C603.059 124.2 596.859 130.4 590.859 134.8C584.859 139.067 579.525 141.2 574.859 141.2C570.192 141.2 566.325 139.6 563.259 136.4C560.192 133.067 558.659 128.933 558.659 124C558.659 112.4 566.859 102.067 583.259 93C591.925 88.3333 598.925 86 604.259 86C606.525 86 608.459 86.7333 610.059 88.2C611.792 89.5333 612.659 91.2 612.659 93.2C612.659 97.8667 609.592 101.867 603.459 105.2C597.459 108.4 587.259 111.467 572.859 114.4C570.992 117.333 569.392 120.333 568.059 123.4C566.859 126.467 566.259 129.067 566.259 131.2C566.259 133.733 567.059 135.8 568.659 137.4C570.392 138.867 572.592 139.6 575.259 139.6C580.059 139.6 585.792 136.933 592.459 131.6C599.259 126.267 606.125 118.867 613.059 109.4C613.992 108.333 614.659 107.8 615.059 107.8C615.325 107.8 615.459 108 615.459 108.4C615.459 108.533 614.859 109.4 613.659 111L609.459 116.2ZM573.659 113C578.325 111.8 582.725 110.333 586.859 108.6C590.992 106.733 594.525 104.8 597.459 102.8C600.525 100.8 602.925 98.7333 604.659 96.6C606.392 94.4667 607.259 92.4 607.259 90.4C607.259 88.2667 606.125 87.2 603.859 87.2C602.125 87.2 600.059 87.8667 597.659 89.2C595.392 90.4 592.925 92.1333 590.259 94.4C587.592 96.6667 584.792 99.4 581.859 102.6C579.059 105.8 576.325 109.267 573.659 113ZM653.877 86L653.077 87.4H636.077L628.077 103C623.011 112.6 618.477 120.933 614.477 128C610.477 135.067 606.544 141.267 602.677 146.6C598.944 151.933 595.144 156.6 591.277 160.6C587.411 164.733 583.211 168.667 578.677 172.4C566.277 182.8 554.611 188 543.677 188C541.411 188 539.677 187.8 538.477 187.4C537.144 187.133 536.477 186.667 536.477 186C536.477 185.333 536.811 185 537.477 185C538.011 185 538.411 185.067 538.677 185.2C540.144 185.6 541.344 185.867 542.277 186C543.211 186.133 544.211 186.2 545.277 186.2C549.944 186.2 554.411 185.267 558.677 183.4C562.811 181.533 567.211 178.533 571.877 174.4C574.677 171.867 577.211 169.4 579.477 167C581.611 164.733 584.011 161.533 586.677 157.4C589.211 153.4 592.344 148.067 596.077 141.4C599.677 134.733 604.411 125.867 610.277 114.8L625.277 87.4H614.877L615.677 86H626.277C630.411 78.9333 634.877 72.2667 639.677 66C644.477 59.6 649.211 54.0667 653.877 49.4C658.544 44.6 662.877 40.8 666.877 38C671.011 35.2 674.477 33.8 677.277 33.8C680.211 33.8 681.677 35.3333 681.677 38.4C681.677 41.3333 680.611 44.6667 678.477 48.4C676.344 52.1333 673.277 56.1333 669.277 60.4C665.411 64.5333 660.744 68.8 655.277 73.2C649.811 77.6 643.744 81.8667 637.077 86H653.877ZM637.877 84C643.211 80.2667 648.411 76.2 653.477 71.8C658.677 67.2667 663.277 62.8667 667.277 58.6C671.277 54.3333 674.477 50.4 676.877 46.8C679.277 43.0667 680.477 40.2 680.477 38.2C680.477 36.0667 679.411 35 677.277 35C675.011 35 672.011 36.6 668.277 39.8C664.544 42.8667 660.811 46.9333 657.077 52C655.611 53.8667 654.277 55.6667 653.077 57.4C652.011 59.1333 650.744 61.1333 649.277 63.4C647.944 65.6667 646.344 68.4667 644.477 71.8C642.744 75 640.544 79.0667 637.877 84ZM672.84 123C668.707 128.867 664.573 133.4 660.44 136.6C656.307 139.667 652.373 141.2 648.64 141.2C644.773 141.2 641.44 139.6 638.64 136.4C635.84 133.2 634.44 129.333 634.44 124.8C634.44 114.667 641.04 105 654.24 95.8C658.64 92.6 662.773 90.2 666.64 88.6C670.64 86.8667 674.107 86 677.04 86C679.707 86 681.773 86.8 683.24 88.4C684.707 90 685.44 92.2 685.44 95C685.44 98.3333 684.307 102.533 682.04 107.6C679.907 112.533 677.107 117.333 673.64 122C674.973 122.8 676.44 123.2 678.04 123.2C680.973 123.2 684.373 121.867 688.24 119.2C692.107 116.4 695.307 113.067 697.84 109.2C698.64 108.267 699.173 107.8 699.44 107.8C699.707 107.8 699.84 107.933 699.84 108.2C699.84 108.6 699.24 109.6 698.04 111.2C696.84 112.8 695.507 114.267 694.04 115.6C688.44 121.333 683.173 124.2 678.24 124.2C676.24 124.2 674.44 123.8 672.84 123ZM682.44 102.8C683.507 100.533 684.04 98 684.04 95.2C684.04 89.8667 681.64 87.2 676.84 87.2C673.907 87.2 670.44 88.8667 666.44 92.2C662.573 95.5333 658.84 99.6 655.24 104.4C651.64 109.067 648.573 114 646.04 119.2C643.64 124.4 642.44 128.933 642.44 132.8C642.44 134.8 643.04 136.467 644.24 137.8C645.44 139 646.973 139.6 648.84 139.6C652.307 139.6 655.973 138.133 659.84 135.2C663.84 132.133 667.84 127.8 671.84 122.2C669.973 120.2 669.04 118.067 669.04 115.8C669.04 114.2 669.373 112.533 670.04 110.8C670.84 109.067 671.773 107.467 672.84 106C673.907 104.4 675.107 103.133 676.44 102.2C677.773 101.267 679.04 100.8 680.24 100.8C681.307 100.8 682.04 101.467 682.44 102.8ZM710.248 114.4C718.248 101.467 722.248 93.4 722.248 90.2C722.248 88.3333 721.514 87.4 720.048 87.4C719.248 87.4 718.114 88 716.648 89.2C715.314 90.2667 713.714 91.7333 711.848 93.6C710.114 95.4667 708.248 97.6667 706.248 100.2C704.248 102.733 702.248 105.467 700.248 108.4C699.448 109.333 698.914 109.8 698.648 109.8C698.381 109.8 698.248 109.6 698.248 109.2C698.248 108.933 698.381 108.667 698.648 108.4L700.448 106C704.981 99.4667 708.981 94.5333 712.448 91.2C715.914 87.7333 718.714 86 720.848 86C723.114 86 724.981 86.9333 726.448 88.8C727.914 90.6667 728.648 93.0667 728.648 96C728.648 98.6667 728.048 101.533 726.848 104.6C725.648 107.667 723.581 111.467 720.648 116C722.514 113.733 724.114 111.933 725.448 110.6C726.914 109.267 728.514 107.867 730.248 106.4C732.781 100.533 735.848 95.6667 739.448 91.8C743.181 87.9333 746.514 86 749.448 86C750.248 86 750.914 86.2667 751.448 86.8C752.114 87.3333 752.448 87.9333 752.448 88.6C752.448 91.6667 747.914 96.1333 738.848 102C737.781 102.667 736.714 103.333 735.648 104C734.581 104.667 733.514 105.333 732.448 106L731.248 107C730.314 109.933 729.848 112.4 729.848 114.4C729.848 116.933 730.381 118.933 731.448 120.4C732.648 121.867 734.181 122.6 736.048 122.6C738.314 122.6 740.981 121.467 744.048 119.2C747.114 116.933 749.981 113.867 752.648 110C753.981 108.533 754.781 107.8 755.048 107.8C755.448 107.8 755.648 108 755.648 108.4C755.648 108.667 755.048 109.533 753.848 111C752.648 112.467 751.314 114 749.848 115.6C744.781 121.067 740.114 123.8 735.848 123.8C733.714 123.8 731.914 123 730.448 121.4C729.114 119.8 728.448 117.733 728.448 115.2C728.448 113.333 728.848 111 729.648 108.2C727.648 110.067 725.848 111.8 724.248 113.4C722.781 114.867 721.248 116.733 719.648 119C718.048 121.133 716.181 123.867 714.048 127.2C712.048 130.533 709.448 134.933 706.248 140.4C704.914 140.267 703.848 140.133 703.048 140C702.248 140 701.314 140 700.248 140C699.314 140 698.448 140 697.648 140C696.848 140.133 695.714 140.267 694.248 140.4L710.248 114.4ZM798.912 116.2C792.512 124.2 786.312 130.4 780.312 134.8C774.312 139.067 768.978 141.2 764.312 141.2C759.645 141.2 755.778 139.6 752.712 136.4C749.645 133.067 748.112 128.933 748.112 124C748.112 112.4 756.312 102.067 772.712 93C781.378 88.3333 788.378 86 793.712 86C795.978 86 797.912 86.7333 799.512 88.2C801.245 89.5333 802.112 91.2 802.112 93.2C802.112 97.8667 799.045 101.867 792.912 105.2C786.912 108.4 776.712 111.467 762.312 114.4C760.445 117.333 758.845 120.333 757.512 123.4C756.312 126.467 755.712 129.067 755.712 131.2C755.712 133.733 756.512 135.8 758.112 137.4C759.845 138.867 762.045 139.6 764.712 139.6C769.512 139.6 775.245 136.933 781.912 131.6C788.712 126.267 795.578 118.867 802.512 109.4C803.445 108.333 804.112 107.8 804.512 107.8C804.778 107.8 804.912 108 804.912 108.4C804.912 108.533 804.312 109.4 803.112 111L798.912 116.2ZM763.112 113C767.778 111.8 772.178 110.333 776.312 108.6C780.445 106.733 783.978 104.8 786.912 102.8C789.978 100.8 792.378 98.7333 794.112 96.6C795.845 94.4667 796.712 92.4 796.712 90.4C796.712 88.2667 795.578 87.2 793.312 87.2C791.578 87.2 789.512 87.8667 787.112 89.2C784.845 90.4 782.378 92.1333 779.712 94.4C777.045 96.6667 774.245 99.4 771.312 102.6C768.512 105.8 765.778 109.267 763.112 113ZM878.282 55.6C870.149 62.9333 863.682 71.3333 858.882 80.8C854.215 90.1333 851.882 99.2667 851.882 108.2C851.882 113.133 852.615 117.667 854.082 121.8C855.682 125.933 857.882 129.467 860.682 132.4C863.482 135.333 866.815 137.6 870.682 139.2C874.549 140.933 878.815 141.8 883.482 141.8C890.949 141.8 898.082 140.467 904.882 137.8C911.682 135 918.482 130.533 925.282 124.4C932.215 118.267 939.282 110.333 946.482 100.6C953.815 90.8667 961.682 79 970.082 65C974.082 58.3333 977.549 52.6667 980.482 48C983.549 43.2 986.282 39.0667 988.682 35.6C991.215 32.1333 993.549 29.2 995.682 26.8C997.949 24.2667 1000.28 22 1002.68 20C1003.62 19.2 1004.62 18.3333 1005.68 17.4C1006.88 16.4667 1008.02 15.6667 1009.08 15C1010.15 14.3333 1011.08 13.8 1011.88 13.4C1012.68 12.8667 1013.22 12.6 1013.48 12.6C1013.75 12.6 1013.88 12.7333 1013.88 13C1013.88 13.2667 1013.82 13.4667 1013.68 13.6C1013.68 13.7333 1013.35 14.1333 1012.68 14.8C1010.68 17.6 1009.02 20.2667 1007.68 22.8C1006.48 25.3333 1005.55 28.6 1004.88 32.6C1004.22 36.6 1003.68 41.7333 1003.28 48C1003.02 54.1333 1002.82 62.2 1002.68 72.2C1002.42 85.4 1001.55 96.2 1000.08 104.6C998.615 112.867 996.415 119.8 993.482 125.4C993.349 125.4 993.282 125.467 993.282 125.6C993.282 125.733 993.349 125.867 993.482 126C993.749 126 994.415 125.2 995.482 123.6C996.682 121.867 998.149 119.533 999.882 116.6C1001.75 113.667 1003.82 110.267 1006.08 106.4C1008.48 102.4 1011.02 98.1333 1013.68 93.6C1019.28 83.8667 1023.82 75.9333 1027.28 69.8C1030.88 63.6667 1034.02 58.6 1036.68 54.6C1039.35 50.4667 1041.82 47 1044.08 44.2C1046.35 41.4 1048.95 38.4 1051.88 35.2C1059.75 26.8 1067.95 20.4 1076.48 16C1085.15 11.4667 1093.82 9.19999 1102.48 9.19999C1107.82 9.19999 1112.68 10.0667 1117.08 11.8C1121.62 13.4 1125.48 15.6667 1128.68 18.6C1132.02 21.5333 1134.55 25.0667 1136.28 29.2C1138.15 33.3333 1139.08 37.8 1139.08 42.6C1139.08 45.2667 1138.88 47.3333 1138.48 48.8C1138.22 50.2667 1137.82 51 1137.28 51C1136.75 51 1136.48 50.7333 1136.48 50.2C1136.48 49.8 1136.55 49.4 1136.68 49C1136.95 48.6 1137.08 47.8 1137.08 46.6C1137.22 45.2667 1137.28 43.8667 1137.28 42.4C1137.28 38.1333 1136.42 34.2 1134.68 30.6C1132.95 27 1130.55 23.8667 1127.48 21.2C1124.55 18.5333 1120.95 16.4667 1116.68 15C1112.55 13.4 1108.08 12.6 1103.28 12.6C1083.68 12.6 1063.95 25.3333 1044.08 50.8C1042.08 53.4667 1040.15 56.1333 1038.28 58.8C1036.42 61.4667 1034.15 64.8667 1031.48 69C1028.95 73 1025.75 78.1333 1021.88 84.4C1018.15 90.5333 1013.42 98.4667 1007.68 108.2C1005.02 112.733 1002.28 117.067 999.482 121.2C996.682 125.2 994.015 128.8 991.482 132C988.949 135.067 986.749 137.467 984.882 139.2C983.015 141.067 981.615 142 980.682 142C979.749 142 979.282 141.533 979.282 140.6C979.282 139.8 979.549 139.2 980.082 138.8C980.615 138.267 981.815 137.533 983.682 136.6C986.349 135.267 988.415 132.933 989.882 129.6C991.482 126.267 992.282 122.067 992.282 117C992.282 115.533 992.215 113.933 992.082 112.2C992.082 110.467 992.015 108.6 991.882 106.6C991.482 100.2 991.215 94.8 991.082 90.4C990.949 85.8667 990.882 81.2667 990.882 76.6C990.882 69.5333 991.215 63.2 991.882 57.6C992.549 51.8667 993.549 46.6667 994.882 42C996.349 37.3333 998.149 33.0667 1000.28 29.2C1002.55 25.3333 1005.28 21.6667 1008.48 18.2C1008.88 17.8 1009.08 17.6667 1009.08 17.8V17.6C1009.08 17.3333 1008.95 17.2 1008.68 17.2C1008.28 17.2 1007.35 17.8667 1005.88 19.2C1004.42 20.4 1002.68 22 1000.68 24C998.549 26.2667 996.549 28.5333 994.682 30.8C992.949 32.9333 991.015 35.6 988.882 38.8C986.882 42 984.482 45.9333 981.682 50.6C979.015 55.2667 975.682 61.2 971.682 68.4C967.415 76.2667 963.815 82.7333 960.882 87.8C957.949 92.7333 955.282 97 952.882 100.6C950.482 104.067 948.082 107.133 945.682 109.8C943.415 112.333 940.749 115.067 937.682 118C929.149 126.267 920.149 132.6 910.682 137C901.215 141.4 891.949 143.6 882.882 143.6C877.415 143.6 872.415 142.667 867.882 140.8C863.482 138.933 859.682 136.333 856.482 133C853.282 129.667 850.749 125.667 848.882 121C847.149 116.333 846.282 111.2 846.282 105.6C846.282 95.3333 849.082 85.5333 854.682 76.2C860.282 66.7333 868.349 58.1333 878.882 50.4C880.215 43.6 882.815 37.2 886.682 31.2C890.682 25.2 895.549 19.9333 901.282 15.4C907.015 10.7333 913.282 7.06666 920.082 4.39999C927.015 1.73333 934.015 0.399996 941.082 0.399996C947.482 0.399996 952.415 2 955.882 5.19999C959.482 8.39999 961.282 12.8 961.282 18.4C961.282 19.7333 961.215 21 961.082 22.2C960.949 23.2667 960.615 24.5333 960.082 26C959.682 27.3333 959.015 28.9333 958.082 30.8C957.282 32.5333 956.215 34.7333 954.882 37.4C953.415 40.2 952.682 42.6667 952.682 44.8C952.682 46.8 953.415 48.5333 954.882 50C956.482 51.3333 958.415 52 960.682 52C963.882 52 967.415 50.4667 971.282 47.4C975.282 44.3333 978.482 40.6 980.882 36.2C981.149 35.5333 981.482 35.2 981.882 35.2C982.415 35.2 982.682 35.4667 982.682 36C982.682 36.5333 982.082 37.6667 980.882 39.4C979.815 41.1333 978.549 42.8 977.082 44.4C971.482 50.6667 966.082 53.8 960.882 53.8C957.282 53.8 954.215 52.5333 951.682 50C949.282 47.3333 948.082 44.0667 948.082 40.2C948.082 38.2 948.349 36.2667 948.882 34.4C949.549 32.5333 950.682 30 952.282 26.8C954.415 22.6667 955.749 19.7333 956.282 18C956.949 16.2667 957.282 14.6 957.282 13C957.282 9.66666 955.682 6.99999 952.482 5C949.415 2.99999 945.349 1.99999 940.282 1.99999C934.015 1.99999 927.615 3.33332 921.082 6C914.682 8.53333 908.749 12 903.282 16.4C897.815 20.6667 893.082 25.6667 889.082 31.4C885.082 37 882.415 42.8 881.082 48.8C893.882 40.5333 906.215 36.4 918.082 36.4C927.549 36.4 934.882 39 940.082 44.2C945.282 49.4 947.882 56.6667 947.882 66C947.882 72.6667 946.282 79.3333 943.082 86C939.882 92.6667 935.682 98.6667 930.482 104C925.282 109.2 919.482 113.467 913.082 116.8C906.682 120.133 900.282 121.8 893.882 121.8C887.482 121.8 882.282 119.8 878.282 115.8C874.282 111.8 872.282 106.6 872.282 100.2C872.282 95.5333 873.149 91.0667 874.882 86.8C876.615 82.4 879.415 77.7333 883.282 72.8C879.949 68.2667 878.282 63.2667 878.282 57.8V55.6ZM880.282 53.8C880.149 54.7333 880.082 55.5333 880.082 56.2C880.082 56.7333 880.082 57.2 880.082 57.6C880.082 62.6667 881.615 67.2 884.682 71.2C886.549 69.2 888.549 67.3333 890.682 65.6C892.815 63.7333 894.949 62.1333 897.082 60.8C899.215 59.3333 901.149 58.2 902.882 57.4C904.749 56.6 906.215 56.2 907.282 56.2C907.815 56.2 908.082 56.4 908.082 56.8C908.082 57.0667 907.949 57.3333 907.682 57.6C907.415 57.7333 906.482 58.1333 904.882 58.8C901.015 60.4 897.549 62.3333 894.482 64.6C891.549 66.7333 888.615 69.4667 885.682 72.8C889.815 77.7333 895.415 80.2 902.482 80.2C908.482 80.2 914.415 78.5333 920.282 75.2C926.282 71.8667 931.149 67.5333 934.882 62.2C935.149 61.9333 935.349 61.8 935.482 61.8C936.015 61.8 936.282 62.0667 936.282 62.6C936.282 63.2667 935.682 64.3333 934.482 65.8C933.415 67.1333 931.949 68.6 930.082 70.2C926.082 73.9333 921.615 76.8 916.682 78.8C911.882 80.8 907.082 81.8 902.282 81.8C898.415 81.8 895.149 81.2667 892.482 80.2C889.815 79 887.149 77 884.482 74.2C877.682 83 874.282 91.4667 874.282 99.6C874.282 105.6 876.082 110.533 879.682 114.4C883.282 118.133 887.949 120 893.682 120C899.415 120 905.282 118.267 911.282 114.8C917.415 111.2 922.949 106.6 927.882 101C932.815 95.4 936.815 89.2 939.882 82.4C943.082 75.4667 944.682 68.6667 944.682 62C944.682 54.8 942.282 49 937.482 44.6C932.682 40.2 926.415 38 918.682 38C905.615 38 892.815 43.2667 880.282 53.8ZM1053.11 123C1048.98 128.867 1044.85 133.4 1040.71 136.6C1036.58 139.667 1032.65 141.2 1028.91 141.2C1025.05 141.2 1021.71 139.6 1018.91 136.4C1016.11 133.2 1014.71 129.333 1014.71 124.8C1014.71 114.667 1021.31 105 1034.51 95.8C1038.91 92.6 1043.05 90.2 1046.91 88.6C1050.91 86.8667 1054.38 86 1057.31 86C1059.98 86 1062.05 86.8 1063.51 88.4C1064.98 90 1065.71 92.2 1065.71 95C1065.71 98.3333 1064.58 102.533 1062.31 107.6C1060.18 112.533 1057.38 117.333 1053.91 122C1055.25 122.8 1056.71 123.2 1058.31 123.2C1061.25 123.2 1064.65 121.867 1068.51 119.2C1072.38 116.4 1075.58 113.067 1078.11 109.2C1078.91 108.267 1079.45 107.8 1079.71 107.8C1079.98 107.8 1080.11 107.933 1080.11 108.2C1080.11 108.6 1079.51 109.6 1078.31 111.2C1077.11 112.8 1075.78 114.267 1074.31 115.6C1068.71 121.333 1063.45 124.2 1058.51 124.2C1056.51 124.2 1054.71 123.8 1053.11 123ZM1062.71 102.8C1063.78 100.533 1064.31 98 1064.31 95.2C1064.31 89.8667 1061.91 87.2 1057.11 87.2C1054.18 87.2 1050.71 88.8667 1046.71 92.2C1042.85 95.5333 1039.11 99.6 1035.51 104.4C1031.91 109.067 1028.85 114 1026.31 119.2C1023.91 124.4 1022.71 128.933 1022.71 132.8C1022.71 134.8 1023.31 136.467 1024.51 137.8C1025.71 139 1027.25 139.6 1029.11 139.6C1032.58 139.6 1036.25 138.133 1040.11 135.2C1044.11 132.133 1048.11 127.8 1052.11 122.2C1050.25 120.2 1049.31 118.067 1049.31 115.8C1049.31 114.2 1049.65 112.533 1050.31 110.8C1051.11 109.067 1052.05 107.467 1053.11 106C1054.18 104.4 1055.38 103.133 1056.71 102.2C1058.05 101.267 1059.31 100.8 1060.51 100.8C1061.58 100.8 1062.31 101.467 1062.71 102.8ZM1091.72 86.8C1092.92 86.9333 1093.99 87.0667 1094.92 87.2C1095.85 87.2 1096.92 87.2 1098.12 87.2C1099.45 87.2 1100.45 87.2 1101.12 87.2C1101.92 87.2 1102.85 87.0667 1103.92 86.8L1083.52 119.8C1080.85 124.067 1079.05 127.267 1078.12 129.4C1077.19 131.533 1076.72 133.467 1076.72 135.2C1076.72 138.267 1078.45 139.8 1081.92 139.8C1083.52 139.8 1085.05 139.467 1086.52 138.8C1088.12 138.133 1089.85 137 1091.72 135.4C1093.59 133.8 1095.65 131.667 1097.92 129C1100.32 126.2 1103.05 122.8 1106.12 118.8C1105.59 116.8 1105.32 115.067 1105.32 113.6C1105.32 110.667 1105.79 107.6 1106.72 104.4C1107.79 101.067 1109.12 98.0667 1110.72 95.4C1112.32 92.7333 1114.05 90.5333 1115.92 88.8C1117.79 86.9333 1119.59 86 1121.32 86C1122.92 86 1123.72 86.9333 1123.72 88.8C1123.72 91.4667 1122.45 95.1333 1119.92 99.8C1117.52 104.333 1113.39 110.733 1107.52 119C1108.85 121.933 1110.99 123.4 1113.92 123.4C1116.19 123.4 1118.85 122.267 1121.92 120C1125.12 117.733 1128.45 114.467 1131.92 110.2C1132.72 109.133 1133.25 108.467 1133.52 108.2C1133.92 107.933 1134.25 107.8 1134.52 107.8C1134.79 107.8 1134.92 107.933 1134.92 108.2C1134.92 108.6 1134.45 109.4 1133.52 110.6C1132.59 111.667 1130.99 113.4 1128.72 115.8C1122.85 121.667 1117.92 124.6 1113.92 124.6C1110.99 124.6 1108.59 123.067 1106.72 120C1103.79 124 1101.19 127.4 1098.92 130.2C1096.65 132.867 1094.52 135 1092.52 136.6C1090.52 138.2 1088.65 139.333 1086.92 140C1085.19 140.8 1083.39 141.2 1081.52 141.2C1078.19 141.2 1075.39 140.067 1073.12 137.8C1070.85 135.533 1069.72 132.733 1069.72 129.4C1069.72 128.2 1069.79 127.067 1069.92 126C1070.19 124.933 1070.52 123.8 1070.92 122.6C1071.45 121.4 1072.12 120 1072.92 118.4C1073.85 116.8 1074.99 114.867 1076.32 112.6L1091.72 86.8ZM1178.21 116.2C1171.81 124.2 1165.61 130.4 1159.61 134.8C1153.61 139.067 1148.28 141.2 1143.61 141.2C1138.94 141.2 1135.08 139.6 1132.01 136.4C1128.94 133.067 1127.41 128.933 1127.41 124C1127.41 112.4 1135.61 102.067 1152.01 93C1160.68 88.3333 1167.68 86 1173.01 86C1175.28 86 1177.21 86.7333 1178.81 88.2C1180.54 89.5333 1181.41 91.2 1181.41 93.2C1181.41 97.8667 1178.34 101.867 1172.21 105.2C1166.21 108.4 1156.01 111.467 1141.61 114.4C1139.74 117.333 1138.14 120.333 1136.81 123.4C1135.61 126.467 1135.01 129.067 1135.01 131.2C1135.01 133.733 1135.81 135.8 1137.41 137.4C1139.14 138.867 1141.34 139.6 1144.01 139.6C1148.81 139.6 1154.54 136.933 1161.21 131.6C1168.01 126.267 1174.88 118.867 1181.81 109.4C1182.74 108.333 1183.41 107.8 1183.81 107.8C1184.08 107.8 1184.21 108 1184.21 108.4C1184.21 108.533 1183.61 109.4 1182.41 111L1178.21 116.2ZM1142.41 113C1147.08 111.8 1151.48 110.333 1155.61 108.6C1159.74 106.733 1163.28 104.8 1166.21 102.8C1169.28 100.8 1171.68 98.7333 1173.41 96.6C1175.14 94.4667 1176.01 92.4 1176.01 90.4C1176.01 88.2667 1174.88 87.2 1172.61 87.2C1170.88 87.2 1168.81 87.8667 1166.41 89.2C1164.14 90.4 1161.68 92.1333 1159.01 94.4C1156.34 96.6667 1153.54 99.4 1150.61 102.6C1147.81 105.8 1145.08 109.267 1142.41 113ZM1192.23 118.4C1197.16 110.667 1200.76 104.533 1203.03 100C1205.43 95.4667 1206.63 92.2667 1206.63 90.4C1206.63 88.4 1205.89 87.4 1204.43 87.4C1201.23 87.4 1194.63 94.4 1184.63 108.4C1183.83 109.333 1183.29 109.8 1183.03 109.8C1182.76 109.8 1182.63 109.6 1182.63 109.2C1182.63 109.067 1182.89 108.667 1183.43 108C1183.96 107.2 1184.63 106.2 1185.43 105C1186.36 103.8 1187.36 102.533 1188.43 101.2C1189.49 99.7333 1190.56 98.3333 1191.63 97C1194.96 92.7333 1197.56 89.8667 1199.43 88.4C1201.43 86.8 1203.36 86 1205.23 86C1207.36 86 1209.16 87 1210.63 89C1212.09 91 1212.83 93.3333 1212.83 96C1212.83 99.7333 1210.89 105 1207.03 111.8C1210.36 107 1213.29 102.933 1215.83 99.6C1218.36 96.2667 1220.63 93.6 1222.63 91.6C1224.76 89.6 1226.63 88.2 1228.23 87.4C1229.96 86.4667 1231.63 86 1233.23 86C1235.89 86 1238.09 87.1333 1239.83 89.4C1241.69 91.5333 1242.63 94.2667 1242.63 97.6C1242.63 99.8667 1242.29 101.933 1241.63 103.8C1240.96 105.667 1239.56 108.333 1237.43 111.8C1244.36 102.2 1249.89 95.5333 1254.03 91.8C1258.16 87.9333 1261.89 86 1265.23 86C1268.03 86 1270.36 87.2 1272.23 89.6C1274.23 92 1275.23 94.9333 1275.23 98.4C1275.23 100 1275.09 101.467 1274.83 102.8C1274.56 104 1273.96 105.533 1273.03 107.4C1272.09 109.267 1270.76 111.6 1269.03 114.4C1267.29 117.067 1264.96 120.6 1262.03 125C1260.16 127.667 1258.89 129.8 1258.23 131.4C1257.56 132.867 1257.23 134.333 1257.23 135.8C1257.23 138.467 1258.56 139.8 1261.23 139.8C1263.63 139.8 1266.83 137.867 1270.83 134C1274.83 130 1280.03 123.733 1286.43 115.2L1289.43 111L1291.23 108.8C1291.49 108.133 1291.83 107.8 1292.23 107.8C1292.63 107.8 1292.83 108 1292.83 108.4C1292.83 108.667 1292.49 109.2 1291.83 110L1287.63 115.8C1281.09 124.733 1275.69 131.2 1271.43 135.2C1267.16 139.2 1263.49 141.2 1260.43 141.2C1257.36 141.2 1254.83 140.067 1252.83 137.8C1250.96 135.533 1250.03 132.6 1250.03 129C1250.03 127.533 1250.09 126.2 1250.23 125C1250.49 123.8 1251.03 122.467 1251.83 121C1252.63 119.4 1253.69 117.533 1255.03 115.4C1256.49 113.133 1258.43 110.267 1260.83 106.8C1263.89 102.533 1266.03 99.2667 1267.23 97C1268.43 94.7333 1269.03 92.8667 1269.03 91.4C1269.03 88.7333 1267.69 87.4 1265.03 87.4C1262.76 87.4 1260.23 88.4667 1257.43 90.6C1254.63 92.6 1251.43 95.7333 1247.83 100C1244.23 104.267 1240.16 109.733 1235.63 116.4C1231.23 123.067 1226.29 131.067 1220.83 140.4C1219.76 140.133 1218.83 140 1218.03 140C1217.36 140 1216.49 140 1215.43 140C1214.23 140 1213.16 140 1212.23 140C1211.29 140 1210.09 140.133 1208.63 140.4L1222.43 118.4C1227.36 110.4 1230.83 104.467 1232.83 100.6C1234.96 96.6 1236.03 93.6667 1236.03 91.8C1236.03 88.8667 1234.83 87.4 1232.43 87.4C1230.56 87.4 1228.09 88.8 1225.03 91.6C1221.96 94.2667 1218.56 98 1214.83 102.8C1211.09 107.6 1207.09 113.267 1202.83 119.8C1198.69 126.2 1194.63 133.067 1190.63 140.4C1189.56 140.133 1188.63 140 1187.83 140C1187.03 140 1186.03 140 1184.83 140C1183.63 140 1182.56 140 1181.63 140C1180.83 140 1179.69 140.133 1178.23 140.4L1192.23 118.4ZM1301.62 109.6C1304.95 104.933 1307.82 101.133 1310.22 98.2C1312.75 95.1333 1314.95 92.7333 1316.82 91C1318.82 89.1333 1320.55 87.8667 1322.02 87.2C1323.48 86.4 1325.02 86 1326.62 86C1330.22 86 1333.15 87.4667 1335.42 90.4C1337.82 93.3333 1339.02 97.0667 1339.02 101.6C1339.02 111.467 1332.75 121.133 1320.22 130.6C1315.68 134.067 1311.28 136.733 1307.02 138.6C1302.75 140.333 1298.88 141.2 1295.42 141.2C1291.95 141.2 1289.15 139.933 1287.02 137.4C1285.02 134.867 1284.02 131.533 1284.02 127.4C1284.02 125.933 1284.15 124.533 1284.42 123.2C1284.68 121.733 1285.15 120.133 1285.82 118.4C1286.62 116.667 1287.62 114.733 1288.82 112.6C1290.02 110.467 1291.55 107.933 1293.42 105L1333.82 40.2C1334.88 40.4667 1335.75 40.6667 1336.42 40.8C1337.08 40.9333 1338.08 41 1339.42 41C1340.48 41 1341.42 41 1342.22 41C1343.15 40.8667 1344.22 40.6667 1345.42 40.4L1301.62 109.6ZM1326.42 87.4C1323.75 87.4 1320.55 89.2 1316.82 92.8C1313.22 96.2667 1308.28 102.333 1302.02 111C1297.35 117.4 1294.02 122.4 1292.02 126C1290.15 129.467 1289.22 132.333 1289.22 134.6C1289.22 138.067 1290.88 139.8 1294.22 139.8C1297.15 139.8 1300.75 138.067 1305.02 134.6C1309.28 131.133 1313.42 127 1317.42 122.2C1321.42 117.4 1324.82 112.4 1327.62 107.2C1330.42 102 1331.82 97.6 1331.82 94C1331.82 92 1331.28 90.4 1330.22 89.2C1329.28 88 1328.02 87.4 1326.42 87.4ZM1390.9 116.2C1384.5 124.2 1378.3 130.4 1372.3 134.8C1366.3 139.067 1360.97 141.2 1356.3 141.2C1351.64 141.2 1347.77 139.6 1344.7 136.4C1341.64 133.067 1340.1 128.933 1340.1 124C1340.1 112.4 1348.3 102.067 1364.7 93C1373.37 88.3333 1380.37 86 1385.7 86C1387.97 86 1389.9 86.7333 1391.5 88.2C1393.24 89.5333 1394.1 91.2 1394.1 93.2C1394.1 97.8667 1391.04 101.867 1384.9 105.2C1378.9 108.4 1368.7 111.467 1354.3 114.4C1352.44 117.333 1350.84 120.333 1349.5 123.4C1348.3 126.467 1347.7 129.067 1347.7 131.2C1347.7 133.733 1348.5 135.8 1350.1 137.4C1351.84 138.867 1354.04 139.6 1356.7 139.6C1361.5 139.6 1367.24 136.933 1373.9 131.6C1380.7 126.267 1387.57 118.867 1394.5 109.4C1395.44 108.333 1396.1 107.8 1396.5 107.8C1396.77 107.8 1396.9 108 1396.9 108.4C1396.9 108.533 1396.3 109.4 1395.1 111L1390.9 116.2ZM1355.1 113C1359.77 111.8 1364.17 110.333 1368.3 108.6C1372.44 106.733 1375.97 104.8 1378.9 102.8C1381.97 100.8 1384.37 98.7333 1386.1 96.6C1387.84 94.4667 1388.7 92.4 1388.7 90.4C1388.7 88.2667 1387.57 87.2 1385.3 87.2C1383.57 87.2 1381.5 87.8667 1379.1 89.2C1376.84 90.4 1374.37 92.1333 1371.7 94.4C1369.04 96.6667 1366.24 99.4 1363.3 102.6C1360.5 105.8 1357.77 109.267 1355.1 113ZM1407.12 114.4C1415.12 101.467 1419.12 93.4 1419.12 90.2C1419.12 88.3333 1418.39 87.4 1416.92 87.4C1416.12 87.4 1414.99 88 1413.52 89.2C1412.19 90.2667 1410.59 91.7333 1408.72 93.6C1406.99 95.4667 1405.12 97.6667 1403.12 100.2C1401.12 102.733 1399.12 105.467 1397.12 108.4C1396.32 109.333 1395.79 109.8 1395.52 109.8C1395.26 109.8 1395.12 109.6 1395.12 109.2C1395.12 108.933 1395.26 108.667 1395.52 108.4L1397.32 106C1401.86 99.4667 1405.86 94.5333 1409.32 91.2C1412.79 87.7333 1415.59 86 1417.72 86C1419.99 86 1421.86 86.9333 1423.32 88.8C1424.79 90.6667 1425.52 93.0667 1425.52 96C1425.52 98.6667 1424.92 101.533 1423.72 104.6C1422.52 107.667 1420.46 111.467 1417.52 116C1419.39 113.733 1420.99 111.933 1422.32 110.6C1423.79 109.267 1425.39 107.867 1427.12 106.4C1429.66 100.533 1432.72 95.6667 1436.32 91.8C1440.06 87.9333 1443.39 86 1446.32 86C1447.12 86 1447.79 86.2667 1448.32 86.8C1448.99 87.3333 1449.32 87.9333 1449.32 88.6C1449.32 91.6667 1444.79 96.1333 1435.72 102C1434.66 102.667 1433.59 103.333 1432.52 104C1431.46 104.667 1430.39 105.333 1429.32 106L1428.12 107C1427.19 109.933 1426.72 112.4 1426.72 114.4C1426.72 116.933 1427.26 118.933 1428.32 120.4C1429.52 121.867 1431.06 122.6 1432.92 122.6C1435.19 122.6 1437.86 121.467 1440.92 119.2C1443.99 116.933 1446.86 113.867 1449.52 110C1450.86 108.533 1451.66 107.8 1451.92 107.8C1452.32 107.8 1452.52 108 1452.52 108.4C1452.52 108.667 1451.92 109.533 1450.72 111C1449.52 112.467 1448.19 114 1446.72 115.6C1441.66 121.067 1436.99 123.8 1432.72 123.8C1430.59 123.8 1428.79 123 1427.32 121.4C1425.99 119.8 1425.32 117.733 1425.32 115.2C1425.32 113.333 1425.72 111 1426.52 108.2C1424.52 110.067 1422.72 111.8 1421.12 113.4C1419.66 114.867 1418.12 116.733 1416.52 119C1414.92 121.133 1413.06 123.867 1410.92 127.2C1408.92 130.533 1406.32 134.933 1403.12 140.4C1401.79 140.267 1400.72 140.133 1399.92 140C1399.12 140 1398.19 140 1397.12 140C1396.19 140 1395.32 140 1394.52 140C1393.72 140.133 1392.59 140.267 1391.12 140.4L1407.12 114.4Z" fill="black"/>
</svg>
