<svg width="36" height="35" viewBox="0 0 36 35" fill="none" xmlns="http://www.w3.org/2000/svg">
<g clip-path="url(#clip0)">
<path d="M32.5527 27.2761C32.0234 28.4989 31.3969 29.6245 30.671 30.6594C29.6815 32.0701 28.8714 33.0466 28.247 33.5889C27.2791 34.479 26.2421 34.9348 25.1317 34.9608C24.3345 34.9608 23.3731 34.7339 22.254 34.2738C21.1312 33.8157 20.0994 33.5889 19.1559 33.5889C18.1665 33.5889 17.1053 33.8157 15.9702 34.2738C14.8334 34.7339 13.9176 34.9737 13.2174 34.9975C12.1525 35.0429 11.0911 34.5741 10.0316 33.5889C9.35538 32.9991 8.50958 31.988 7.49634 30.5557C6.40921 29.0261 5.51544 27.2524 4.81525 25.2302C4.06537 23.046 3.68945 20.9309 3.68945 18.8833C3.68945 16.5377 4.19629 14.5147 5.21147 12.8194C6.00932 11.4577 7.07073 10.3835 8.39918 9.59496C9.72762 8.8064 11.163 8.40456 12.7088 8.37885C13.5546 8.37885 14.6638 8.64048 16.0421 9.15466C17.4166 9.67057 18.2991 9.9322 18.686 9.9322C18.9753 9.9322 19.9557 9.62628 21.6177 9.01639C23.1894 8.45079 24.5159 8.2166 25.6026 8.30885C28.5473 8.5465 30.7596 9.7073 32.2308 11.7986C29.5973 13.3943 28.2945 15.6292 28.3205 18.4964C28.3442 20.7296 29.1544 22.588 30.7466 24.0636C31.4682 24.7484 32.274 25.2777 33.1706 25.6536C32.9762 26.2175 32.7709 26.7576 32.5527 27.2761ZM25.7992 0.700688C25.7992 2.45109 25.1598 4.08543 23.8851 5.59816C22.3469 7.3965 20.4863 8.43567 18.4687 8.27169C18.443 8.0617 18.4281 7.84069 18.4281 7.60844C18.4281 5.92806 19.1596 4.12972 20.4587 2.65933C21.1072 1.91485 21.9321 1.29582 22.9324 0.802011C23.9305 0.315569 24.8746 0.0465556 25.7625 0.000488281C25.7884 0.234489 25.7992 0.468505 25.7992 0.700665V0.700688Z" fill="#FEFEFB"/>
</g>
<defs>
<clipPath id="clip0">
<rect width="35" height="35" fill="white" transform="translate(0.773438)"/>
</clipPath>
</defs>
</svg>
