<svg width="36" height="21" viewBox="0 0 36 21" fill="none" xmlns="http://www.w3.org/2000/svg">
<path d="M0 10.5C0 4.70101 4.83532 0 10.8 0H16.2V3.5H10.8C6.82355 3.5 3.6 6.63401 3.6 10.5C3.6 14.366 6.82355 17.5 10.8 17.5H16.2V21H10.8C4.83532 21 0 16.299 0 10.5Z" fill="white"/>
<path d="M25.1992 12.25H10.7992V8.75H25.1992V12.25Z" fill="white"/>
<path d="M25.2 0C31.1647 0 36 4.70101 36 10.5C36 16.299 31.1647 21 25.2 21H19.8V17.5H25.2C29.1764 17.5 32.4 14.366 32.4 10.5C32.4 6.63401 29.1764 3.5 25.2 3.5H19.8V0H25.2Z" fill="white"/>
</svg>
