<svg width="155" height="62" viewBox="0 0 155 62" fill="none" xmlns="http://www.w3.org/2000/svg">
<path d="M111.627 47.6011C109.332 54.9764 109.085 54.8251 108.87 54.5994C108.738 54.4566 108.619 54.3438 108.391 54.3709C108.121 54.4052 107.921 54.2281 107.744 54.0452C107.566 53.8624 107.384 53.7596 107.427 53.4597C107.469 53.1598 107.219 53.0541 107.017 52.9612C106.874 52.897 106.748 52.8184 106.731 52.6956C106.687 52.4099 106.385 52.32 106.302 52.0971C106.211 51.8401 105.955 51.7487 105.838 51.5059C105.72 51.2921 105.533 51.1245 105.307 51.0303C105.208 50.9874 105.187 50.846 105.133 50.7532C105.013 50.5195 104.838 50.3189 104.623 50.1691C104.215 49.8731 103.909 49.4586 103.746 48.9822C103.645 48.7094 103.706 48.438 103.289 48.5195C103.146 48.5466 103.065 48.4038 103.025 48.3166C102.721 47.6525 102.219 47.1198 101.784 46.5556C101.394 46.0515 101.128 45.4745 100.722 44.9846C100.465 44.6747 100.343 44.2705 100.078 43.9734C99.8141 43.6764 99.7684 43.2593 99.4456 43.0065C99.3885 42.9622 99.4085 42.8208 99.2514 42.7951C99.16 42.7809 99.0086 42.6352 99.02 42.5695C99.0771 42.2081 98.8143 42.0353 98.6515 41.784C98.4983 41.5556 98.3237 41.3423 98.1302 41.147C97.9874 40.9956 97.7889 40.877 97.8617 40.6142C97.881 40.5563 97.8768 40.4931 97.8501 40.4381C97.8235 40.3831 97.7764 40.3408 97.7189 40.32C97.399 40.2143 97.3861 39.8916 97.2204 39.6788C97.0548 39.466 96.8748 39.2917 96.792 38.9932C96.7091 38.6947 96.4106 38.5005 96.2207 38.2434C96.095 38.0677 96.0579 37.8492 95.7765 37.7807C95.6337 37.745 95.6708 37.3865 95.3866 37.3765C95.2581 37.3765 95.2938 37.2479 95.2766 37.1608C95.231 36.9152 95.1066 36.6911 94.9224 36.5224C94.6154 36.2367 94.2526 36.3253 94.144 36.7338C94.0825 36.9742 93.9606 37.1949 93.7898 37.375C93.4214 37.7621 93.0686 38.1691 92.7044 38.5533C92.2859 38.9946 92.0446 39.5259 91.6875 39.9815C91.3304 40.4371 91.1162 41.0399 90.6192 41.4098C90.3193 41.6283 90.3435 42.0882 90.0108 42.2967C90.0565 42.6966 89.7137 42.8494 89.5052 43.0851C89.3624 43.245 89.2067 43.3936 89.051 43.5407C88.8668 43.7149 88.7454 43.8863 88.9539 44.132C89.0967 44.2933 88.9367 44.4176 88.8296 44.4633C88.7464 44.4863 88.671 44.5315 88.6116 44.5942C88.5522 44.6569 88.511 44.7346 88.4926 44.8189C88.4469 45.0446 88.2726 45.1617 88.1355 45.316C87.9584 45.5145 87.5814 45.5816 87.707 45.9858C87.7213 46.0358 87.6056 46.1286 87.5428 46.1972C87.48 46.2657 87.2943 46.3786 87.3057 46.4471C87.38 46.9084 87.0415 47.1184 86.7873 47.3826C86.6445 47.534 86.7873 47.7996 86.5402 47.9296C86.4435 47.9751 86.3652 48.0524 86.3185 48.1485C86.2717 48.2446 86.2592 48.3538 86.2831 48.458C86.1003 48.4995 86.0989 48.9465 85.7689 48.6894C85.743 48.7217 85.728 48.7614 85.7262 48.8027C85.7244 48.8441 85.7359 48.885 85.759 48.9194C85.8461 49.0108 85.9418 49.1264 85.8075 49.205C85.5304 49.3735 85.6418 49.8077 85.2905 49.9191C85.2505 49.9305 85.2348 50.0334 85.2148 50.0962C85.1076 50.4048 84.8986 50.6678 84.6221 50.8417C84.4221 50.9846 84.2022 51.166 84.2879 51.4844C84.3164 51.593 84.2222 51.6473 84.1651 51.7187C83.81 52.1762 83.5585 52.7054 83.4281 53.2697C83.3538 53.5696 83.0153 53.6568 82.8697 53.8839C82.5654 54.3595 82.0199 54.1452 81.6371 54.3737C81.6045 54.3885 81.5678 54.3916 81.5332 54.3825C81.4987 54.3734 81.4682 54.3526 81.4471 54.3238C81.1686 53.9738 80.733 53.8196 80.4474 53.4668C80.2317 53.2026 80.136 52.8755 79.9161 52.6099C79.6961 52.3442 80.0589 52.0872 80.0918 51.8072C80.416 51.8386 80.3546 51.5216 80.4203 51.3788C80.6045 50.9543 80.7517 50.5146 80.8602 50.0648C80.8987 49.922 80.8601 49.7877 81.0815 49.7949C81.1287 49.7949 81.2243 49.612 81.2243 49.5092C81.2172 49.105 81.5328 48.8265 81.6057 48.4452C81.6557 48.1795 81.8913 47.9467 82.0413 47.7025C82.1741 47.4926 82.3269 47.2926 82.2955 47.0227C82.2966 46.9316 82.3283 46.8436 82.3855 46.7727C82.5097 46.5471 82.8854 46.5799 82.8868 46.2015C82.8868 45.9829 83.0825 45.7658 83.1924 45.5502C83.3024 45.3345 83.3481 45.0946 83.5066 44.9789C83.6895 44.8461 83.6238 44.5004 83.9351 44.5119C83.9565 44.5119 84.0094 44.4333 84.0008 44.4047C83.8823 44.0248 84.2093 43.8149 84.3493 43.5478C84.6592 42.9608 85.0391 42.4052 85.3491 41.8197C85.5561 41.4283 85.8004 41.0556 85.9946 40.6585C86.0475 40.55 86.1046 40.5514 86.1846 40.5157C86.3274 40.4457 86.4616 40.3486 86.4345 40.1415C86.3774 39.7016 86.6487 39.3774 86.8515 39.0304C86.9529 38.859 87.1072 38.6919 87.13 38.509C87.1514 38.3483 87.2325 38.2014 87.3571 38.0977C87.4257 38.032 87.5599 37.9449 87.5485 37.8992C87.4228 37.4222 87.897 37.2322 88.0227 36.8737C88.1501 36.5173 88.3322 36.1829 88.5626 35.8825C88.7896 35.584 88.9539 35.2313 89.1638 34.9256C89.4335 34.5068 89.7257 34.103 90.0393 33.7159C90.2493 33.4717 90.3778 33.1704 90.632 32.9561C90.8692 32.7377 91.0788 32.4912 91.2562 32.222C91.5418 31.8321 92.0303 31.7036 92.4616 31.5379C92.7915 31.4122 93.1286 31.6179 93.4328 31.7536C93.6927 31.8692 93.9784 31.9564 94.1826 32.1934C94.3131 32.3174 94.462 32.4205 94.6239 32.4991C94.6782 32.5319 94.8067 32.5362 94.8067 32.5519C94.8067 32.9718 95.2195 33.0404 95.418 33.286C95.6523 33.5558 95.9042 33.8096 96.1721 34.0459C96.2165 34.0834 96.2504 34.1318 96.2704 34.1864C96.2904 34.241 96.2959 34.2999 96.2864 34.3572C96.275 34.4372 96.3506 34.48 96.3649 34.5372C96.4321 34.8042 96.8977 34.4757 96.8591 34.8814C96.8334 35.167 97.1005 35.1599 97.2476 35.2827C97.7376 35.7007 98.1404 36.2113 98.433 36.7852C98.5501 37.008 98.5544 37.3136 98.8986 37.3965C98.9651 37.4325 99.0213 37.4851 99.0615 37.5491C99.1018 37.6132 99.1249 37.6865 99.1285 37.7621C99.0571 38.1691 99.4499 38.3648 99.5027 38.6833C99.5656 39.0718 99.8327 39.2774 100.074 39.5202C100.36 39.8144 100.52 40.1986 100.692 40.5514C100.822 40.8156 100.902 41.1027 101.135 41.2912C101.368 41.4797 101.228 41.8311 101.529 41.9968C101.749 42.1182 101.912 42.3495 102.088 42.5423C102.175 42.6393 102.236 42.756 102.268 42.8823C102.181 43.2065 102.502 43.3179 102.588 43.5478C102.661 43.7478 103.016 43.7321 103.016 44.0777C103.016 44.3305 103.268 44.4962 103.535 44.5576C103.655 45.0746 104.099 45.4302 104.256 45.8987C104.399 46.3357 104.556 46.6756 104.987 46.8741C105.099 46.9347 105.194 47.0209 105.266 47.1257C105.338 47.2305 105.384 47.3509 105.4 47.4769C105.426 47.6843 105.533 47.8732 105.697 48.0024C106.088 48.3681 106.411 48.8065 106.895 49.0693C107.058 49.1564 107.098 49.4278 107.214 49.4849C107.349 49.5649 107.478 49.6572 107.596 49.7606C107.74 49.8687 107.889 49.9693 108.044 50.0619C108.146 50.1219 108.316 50.1376 108.368 50.0619C108.519 49.8377 108.962 49.8334 108.853 49.4207C109.162 48.9565 109.125 48.3609 109.509 47.8996C109.785 47.5683 109.867 47.077 110.236 46.7813C110.243 46.4328 110.521 46.18 110.567 45.8473C110.584 45.7373 110.55 45.6302 110.634 45.5173C110.903 45.1617 110.984 44.6947 111.257 44.3533C111.53 44.012 111.57 43.5478 111.904 43.2622C112.103 43.0936 111.848 42.928 111.884 42.8751C112.063 42.6123 112.047 42.2781 112.262 42.0182C112.504 41.7325 112.73 41.4069 112.708 40.9942C112.701 40.8371 112.794 40.8385 112.911 40.7899C113.092 40.7142 113.188 40.5043 113.414 40.4457C113.538 40.4157 113.526 40.2843 113.394 40.1315C113.334 40.063 113.251 40.023 113.366 39.9244C113.482 39.8259 113.582 39.763 113.572 39.5816C113.541 39.0018 113.858 38.5119 114.033 37.9892C114.192 37.5336 114.553 37.1708 114.583 36.6424C114.598 36.3839 114.928 36.2482 115.055 35.9882C115.182 35.7283 115.409 35.5383 115.437 35.2127C115.45 35.057 115.546 34.9042 115.806 35.0699C116.157 35.3027 116.166 35.2427 116.489 34.9613C116.639 34.8218 116.752 34.6457 116.814 34.45C116.897 34.2044 116.894 33.9673 117.227 33.9059C117.297 33.8858 117.356 33.8399 117.393 33.7776C117.43 33.7153 117.442 33.6411 117.427 33.5703C117.407 33.4757 117.41 33.3778 117.435 33.2846C117.52 32.9847 117.648 32.9176 118.06 32.9347C118.3 32.9433 118.335 32.9961 118.202 33.2203C118.134 33.3346 118.131 33.476 118.01 33.5717C117.777 33.7531 117.778 33.9687 118.01 34.153C118.142 34.2587 118.127 34.3886 118.152 34.5272C118.19 34.7728 118.031 35.047 118.261 35.2698C118.292 35.2998 118.288 35.4369 118.261 35.4512C117.883 35.6555 117.85 36.0539 117.773 36.3938C117.678 36.808 117.353 37.148 117.407 37.6007C117.223 37.7135 117.3 37.8963 117.293 38.052C117.293 38.2748 117.357 38.5319 117.007 38.5676C117.084 38.7547 116.647 38.8975 116.96 39.1046C116.889 39.326 116.793 39.5388 116.674 39.7387C116.392 40.1154 116.21 40.5577 116.146 41.0241C116.138 41.0808 116.118 41.1352 116.089 41.1843C116.06 41.2334 116.021 41.276 115.974 41.3098C115.929 41.3467 115.894 41.3943 115.873 41.4481C115.851 41.502 115.842 41.5605 115.849 41.6183C115.849 41.7283 115.889 41.8497 115.774 41.9425C115.389 42.2596 115.419 42.7523 115.299 43.1708C115.245 43.4094 115.148 43.6363 115.013 43.8406C114.959 43.9149 114.845 43.9977 114.858 44.0563C114.943 44.4676 114.636 44.6518 114.403 44.8718C114.314 44.945 114.242 45.0372 114.193 45.1417C114.143 45.2462 114.118 45.3603 114.118 45.4759C114.126 45.6457 114.098 45.8153 114.034 45.9729C113.971 46.1306 113.873 46.2724 113.749 46.3885C113.438 46.6585 113.501 47.0912 113.312 47.424C113.218 47.5883 113.185 47.7882 113.054 47.961C112.922 48.1338 112.784 48.3295 112.844 48.5852C112.882 48.7523 112.797 48.8822 112.712 49.0293C112.514 49.3721 112.284 49.702 112.262 50.1319C112.262 50.2676 112.127 50.409 112.03 50.529C111.915 50.6718 111.708 50.7846 111.961 50.9774C111.767 51.2831 111.711 51.6687 111.437 51.9201C111.396 51.9572 111.274 52.1043 111.174 52.03C111.123 51.9915 111.148 51.8572 111.13 51.7687C111.115 51.7265 111.093 51.687 111.066 51.6515L110.966 51.743C110.794 51.8858 110.807 52.05 110.927 52.2314C111.186 52.6199 111.187 52.6299 110.879 52.9669C110.691 53.1924 110.583 53.4737 110.573 53.7667C110.54 54.1281 110.334 54.3894 110.166 54.6708C110.06 54.8465 109.893 55.0079 111.611 47.5768C113.659 40.2243 113.706 40.1772 113.818 39.8716C113.903 39.6873 113.846 39.7145 113.851 39.7287C113.878 39.8716 113.768 39.923 113.708 40.0144C113.668 40.0701 113.708 40.0972 113.772 40.0815C113.815 40.0715 113.869 40.0944 113.906 40.0815C114.038 40.0172 113.983 39.8901 113.986 39.7859C113.986 39.7487 113.953 39.7102 113.819 39.8773C113.619 40.0987 113.572 40.1486 111.627 47.6011ZM89.7294 40.9599H89.8722C90.0622 40.9599 90.0008 40.8171 90.0151 40.7099C90.0336 40.5457 89.9336 40.54 89.8037 40.5243C89.6237 40.5043 89.5423 40.6271 89.4709 40.7314C89.3995 40.8356 89.4209 40.9556 89.5952 40.9599H89.7294ZM115.547 40.4343C115.506 40.42 115.46 40.3857 115.425 40.3943C115.226 40.44 115.146 40.6328 115.009 40.7528C114.965 40.7928 114.789 40.8442 114.925 40.9399C115.005 40.997 115.21 41.017 115.24 40.9227C115.312 40.7558 115.418 40.6058 115.552 40.4829C115.559 40.4729 115.549 40.4486 115.547 40.4343ZM115.932 35.5355C115.916 35.5512 115.884 35.5698 115.887 35.5826C115.898 35.6162 115.913 35.6483 115.932 35.6783C115.949 35.6626 115.98 35.6426 115.977 35.6312C115.967 35.5962 115.952 35.563 115.932 35.5326V35.5355ZM90.8163 33.5531L90.7235 33.6045C90.7406 33.6202 90.7592 33.6517 90.7706 33.6488C90.8042 33.6382 90.8364 33.6233 90.8663 33.6045L90.8163 33.5531Z" fill="#FEFEFB"/>
<path d="M77.155 35.3425C77.155 35.0497 77.1679 34.8355 77.155 34.6284C77.1251 34.2199 76.8808 33.99 76.4581 33.8157C76.0667 33.6529 75.7068 33.5486 75.2712 33.6643C75.0256 33.73 74.7442 33.6429 74.47 33.5701C74.1086 33.4758 73.7273 33.2959 73.3274 33.393C73.2174 33.4187 73.1517 33.3515 73.1646 33.233C73.1946 32.9745 73.1018 32.746 73.0318 32.5032C72.9446 32.2075 73.0046 32.0961 73.3246 31.9747C73.7773 31.8019 74.1601 31.4534 74.7171 31.5177C74.9713 31.5477 75.2541 31.3506 75.5226 31.2563C75.7497 31.5249 76.0567 31.3806 76.3224 31.3863C76.6809 31.3935 76.9965 31.4506 77.265 31.7077C77.421 31.833 77.6022 31.9232 77.7963 31.9719C78.1291 32.0861 78.5533 32.0861 78.6033 32.596C78.6178 32.6662 78.6582 32.7283 78.7164 32.7701C78.7746 32.8119 78.8463 32.8303 78.9175 32.8217C79.0009 32.8108 79.0855 32.8285 79.1575 32.8718C79.2296 32.9151 79.2849 32.9815 79.3145 33.0602C79.4885 33.3711 79.6943 33.6631 79.9287 33.9314C80.1272 34.1714 80.1229 34.4713 80.2643 34.7255C80.3136 34.8188 80.34 34.9226 80.3413 35.0281C80.3425 35.1337 80.3186 35.238 80.2714 35.3325C80.1686 35.5067 80.1415 35.5853 80.2829 35.7438C80.4242 35.9024 80.1914 36.0395 80.14 36.1609C80.0486 36.368 79.9972 36.4922 80.1086 36.7193C80.1844 36.9412 80.2002 37.1792 80.1543 37.4091C80.1443 37.4909 80.1026 37.5655 80.0383 37.617C79.974 37.6685 79.8921 37.6928 79.8101 37.6848C79.5545 37.6848 79.4402 37.8362 79.4502 38.089C79.4502 38.2075 79.4402 38.3289 79.4502 38.446C79.4772 38.6291 79.4547 38.8161 79.3852 38.9876C79.3156 39.1591 79.2015 39.3089 79.0546 39.4215C78.7175 39.6886 78.5761 40.1085 78.2491 40.377C78.1648 40.4455 78.1819 40.5384 78.1577 40.6255C78.0548 40.9825 77.9049 41.311 77.5549 41.5081C77.4481 41.5626 77.363 41.6517 77.3136 41.7609C77.1936 42.1465 77.0037 42.4579 76.5995 42.5979C76.4738 42.9835 75.9553 43.152 76.0182 43.6419C76.0367 43.7847 75.9139 43.839 75.8411 43.9275C75.6343 44.1459 75.4087 44.3456 75.167 44.5245C75.003 44.6406 74.8584 44.7819 74.7385 44.943C74.7156 44.9787 74.7256 45.0544 74.6999 45.0673C74.4614 45.1844 74.1286 45.2215 74.0387 45.4843C73.9487 45.7471 73.6702 45.8499 73.5659 46.0756C73.446 46.337 73.056 46.2813 72.9946 46.6169C72.9761 46.7169 72.749 46.6897 72.6533 46.814C72.619 46.8583 72.4491 46.8026 72.4505 46.9339C72.4576 47.3039 72.2205 47.441 71.9263 47.5695C71.7835 47.6323 71.6878 47.7966 71.5693 47.9137C71.5021 47.9794 71.4136 48.1108 71.3665 48.0979C70.7038 47.9151 70.4395 48.5393 70.0111 48.7949C69.7254 48.9634 69.4398 49.152 69.1541 49.3305C68.9171 49.4733 68.5343 49.4876 68.5571 49.9161C68.5571 49.9646 68.4643 50.0589 68.4143 50.0589C68.1544 50.0589 68.0273 50.2646 67.843 50.3874C67.6588 50.5102 67.4503 50.6945 67.1789 50.673C67.0604 50.6645 66.9847 50.7302 67.0218 50.8359C67.1289 51.1529 66.8176 51.1315 66.7005 51.1815C66.4366 51.305 66.1491 51.3698 65.8578 51.3714C65.7173 51.3582 65.5762 51.3884 65.4535 51.4582C65.3309 51.528 65.2327 51.6338 65.1723 51.7613C65.0914 51.949 64.9578 52.1091 64.7877 52.2222C64.6175 52.3352 64.4182 52.3965 64.2139 52.3983C64.1176 52.4048 64.0239 52.432 63.9391 52.4781C63.8543 52.5242 63.7804 52.5881 63.7226 52.6654C63.5027 52.9511 63.1513 52.9639 62.82 52.9511C62.79 52.9511 62.7414 52.8939 62.7357 52.8582C62.7229 52.7625 62.7357 52.6683 62.5929 52.6683C62.5338 52.6707 62.477 52.6913 62.4302 52.7274C62.3834 52.7635 62.3489 52.8132 62.3315 52.8696C62.2915 53.4252 61.8931 53.4409 61.4746 53.5495C61.1668 53.6364 60.8473 53.675 60.5277 53.6637C60.2576 53.6703 59.9934 53.7444 59.7593 53.8794C59.5651 53.9722 59.3308 54.0065 59.2351 53.9294C59.0566 53.7866 58.8852 53.8308 58.7053 53.8123C58.6167 53.8037 58.5125 53.8437 58.4482 53.7466C58.2954 53.5138 57.994 53.6037 57.8412 53.5023C57.5684 53.3167 57.1714 53.5152 56.9757 53.1453C56.8329 52.8739 56.4544 52.8996 56.2444 52.6868C56.0869 52.5226 55.8865 52.4058 55.666 52.3498C55.4575 52.2926 55.2375 52.037 55.1376 51.7399C55.0544 51.4996 54.9018 51.2893 54.6991 51.1358C54.5642 51.0371 54.4465 50.917 54.3506 50.7802C54.2749 50.663 54.5192 50.5831 54.4435 50.4345C54.3006 50.1589 54.1578 49.8818 54.015 49.609C53.9736 49.529 53.8393 49.5033 53.8722 49.3862C53.975 48.9349 53.7579 48.5221 53.7165 48.088C53.6808 47.7052 53.9236 47.3867 53.8793 47.0025C53.8217 46.6238 53.8217 46.2386 53.8793 45.8599C53.9836 45.3201 54.1807 44.7973 54.3363 44.2675C54.642 43.2263 55.1347 42.2608 55.6217 41.2996C55.8874 40.7683 56.2759 40.2927 56.5772 39.7686C56.6331 39.6212 56.7138 39.4845 56.8157 39.3644C56.95 39.2458 56.7486 38.8973 57.1099 38.9288C57.151 38.7473 57.2605 38.5888 57.4156 38.486C57.7012 38.2989 57.8041 37.959 58.104 37.7719C58.4039 37.5848 58.5924 37.2934 58.9038 37.1178C59.1156 37.0042 59.2883 36.8295 59.3994 36.6165C59.5079 36.3751 59.5993 36.2251 59.8864 36.2337C60.0364 36.2337 60.1035 36.068 60.2035 35.9738C60.4891 35.711 60.7405 35.451 61.1675 35.3539C61.4753 35.261 61.7454 35.0724 61.9388 34.8155C62.2394 34.4368 62.6373 34.147 63.0899 33.9771C63.3327 33.8814 63.4498 33.6472 63.7169 33.5872C63.9169 33.5415 64.1539 33.5201 64.321 33.3101C64.4367 33.1673 64.7081 33.1287 64.8695 33.1216C65.4893 33.0902 66.0578 32.806 66.6776 32.8117C66.7231 32.8172 66.7692 32.8113 66.8119 32.7945C66.9543 32.7022 67.1157 32.6432 67.2841 32.622C67.4525 32.6007 67.6236 32.6177 67.7845 32.6717C68.0201 32.7603 68.1572 32.5289 68.3686 32.5218C68.58 32.5146 68.7971 32.596 68.987 32.4703C69.0685 32.4161 69.1713 32.3275 69.227 32.3989C69.4012 32.6074 69.6297 32.5418 69.8197 32.5175C70.4624 32.4261 70.9451 32.7817 71.4607 33.0516C71.5593 33.103 71.6235 33.1944 71.7335 33.2516C72.1348 33.4558 72.2905 33.7786 72.3177 34.2613C72.3576 34.9754 71.9463 35.2996 71.435 35.611C71.3855 35.6414 71.3305 35.6617 71.2732 35.6707C71.2158 35.6798 71.1573 35.6775 71.1008 35.6638C70.1353 35.4782 70.1125 35.4739 69.2184 35.6638C69.1709 35.669 69.1231 35.669 69.0756 35.6638C68.3758 35.6453 67.6959 35.8995 66.9918 35.8067C66.7719 35.7767 66.6176 35.9181 66.4305 35.9995C65.8007 36.2766 65.2879 36.7807 64.6095 36.9492C64.5437 36.9582 64.4821 36.9865 64.4324 37.0307C64.1554 37.3949 63.7512 37.5305 63.3498 37.6991C63.1499 37.7833 62.8414 37.8419 62.8485 38.1804C62.4486 38.636 61.9866 39.0332 61.476 39.3601C61.118 39.5813 60.8085 39.8728 60.5662 40.217C60.3349 40.5812 60.1935 40.9825 59.7464 41.1511C59.7107 41.1639 59.7207 41.2768 59.6922 41.3367C59.3163 42.1218 58.8596 42.8657 58.3296 43.5562C58.3011 43.5933 58.2354 43.6233 58.234 43.6576C58.2025 44.3717 57.5498 44.853 57.5584 45.6043C57.5584 45.9742 57.307 46.3455 57.1699 46.7169C56.9957 47.1839 56.8 47.6466 56.87 48.1636C56.8914 48.3222 56.7957 48.5093 56.9257 48.6378C57.1085 48.8163 56.7686 48.8706 56.8557 49.0506C56.9214 49.1934 56.8814 49.3791 56.8671 49.5447C56.8546 49.6483 56.8679 49.7533 56.9058 49.8505C56.9436 49.9477 57.0049 50.034 57.0842 50.1017C57.2444 50.2326 57.3741 50.3969 57.4641 50.5831C57.5884 50.8758 57.9726 50.9344 58.2454 51.0729C58.4796 51.1901 58.7753 51.4186 59.058 51.1129C59.6493 51.0958 60.1806 50.7402 60.7862 50.8059C60.929 50.8201 60.9876 50.7159 61.0861 50.663C61.596 50.4017 62.2173 50.3874 62.6472 49.9489C63.2185 49.9775 63.5612 49.5133 64.0211 49.3034C64.3939 49.1463 64.7524 49.0034 65.108 48.8263C65.5722 48.5978 65.5893 48.6321 66.0306 48.1551C66.3991 48.1351 66.4762 47.6009 66.9033 47.6623C66.9647 47.6723 67.0361 47.5381 67.1175 47.5024C67.4488 47.3596 67.6417 47.0496 67.9216 46.8525C68.1644 46.6812 68.44 46.5669 68.6114 46.3012C68.6771 46.1998 68.8428 46.1813 68.9585 46.1113C69.2156 45.9542 69.5041 45.8671 69.6497 45.5529C69.7249 45.4052 69.8544 45.2925 70.0111 45.2386C70.2192 45.1659 70.4184 45.0701 70.6052 44.953C70.7937 44.833 70.8223 44.5688 71.0237 44.4431C71.2722 44.2875 71.3836 43.9961 71.6093 43.8147C71.8349 43.6333 72.1106 43.4762 72.1805 43.1506C72.4662 43.122 72.5776 42.7693 72.8689 42.7478C73.1246 42.7307 73.1846 42.5079 73.256 42.3479C73.5845 41.621 73.7544 41.4082 74.3514 40.804C74.513 40.6466 74.651 40.4667 74.7613 40.2699C75.1527 39.5172 75.7754 38.9373 76.2338 38.2375C76.2983 38.1486 76.3467 38.049 76.3767 37.9433C76.5195 37.2892 76.8708 36.7193 77.0908 36.098C77.2022 35.8138 77.0936 35.5382 77.155 35.3425ZM79.276 33.5786C79.2386 33.5558 79.1975 33.5399 79.1546 33.5315C79.0192 33.5376 78.8865 33.572 78.7653 33.6326C78.644 33.6931 78.5367 33.7783 78.4504 33.8829C78.4393 33.905 78.4334 33.9295 78.4334 33.9543C78.4334 33.9791 78.4393 34.0035 78.4504 34.0257C78.4662 34.06 78.5219 34.1099 78.5476 34.1042C78.835 34.0326 79.0906 33.8679 79.2745 33.6358C79.2788 33.6201 79.2745 33.5986 79.276 33.5786ZM70.728 45.6357C70.728 45.6128 70.728 45.5886 70.728 45.5657C70.728 45.4686 70.728 45.3815 70.5852 45.3815C70.4424 45.3815 70.4424 45.4657 70.4424 45.5629C70.4365 45.658 70.4365 45.7534 70.4424 45.8485C70.451 45.9213 70.4924 45.9628 70.5852 45.9628C70.6021 45.9654 70.6193 45.9645 70.6359 45.9601C70.6524 45.9558 70.6678 45.948 70.6812 45.9375C70.6946 45.9269 70.7057 45.9136 70.7138 45.8986C70.7218 45.8835 70.7267 45.867 70.728 45.8499C70.7331 45.7796 70.7331 45.7089 70.728 45.6385V45.6357ZM70.728 47.4795C70.7166 47.1939 70.5752 47.2482 70.471 47.2424C70.3667 47.2367 70.2882 47.251 70.2924 47.3853C70.2924 47.5766 70.4353 47.5167 70.5438 47.5281C70.6523 47.5395 70.738 47.5181 70.7352 47.4824L70.728 47.4795ZM72.4419 44.1703C72.3291 44.0975 72.2848 43.9275 72.1148 43.9575C72.0976 43.9578 72.0807 43.962 72.0653 43.9698C72.0499 43.9776 72.0366 43.9889 72.0262 44.0026C72.0159 44.0164 72.0088 44.0324 72.0056 44.0494C72.0024 44.0663 72.0031 44.0837 72.0077 44.1004C72.0139 44.1631 72.0406 44.2221 72.0837 44.2681C72.1269 44.3141 72.184 44.3445 72.2462 44.3546C72.3091 44.3589 72.3805 44.2389 72.4476 44.1732L72.4419 44.1703ZM54.732 47.8837C54.722 47.8166 54.7634 47.7095 54.6834 47.6995C54.5406 47.6781 54.5963 47.8109 54.5906 47.8823C54.5848 47.9537 54.5563 48.0537 54.6363 48.0651C54.7862 48.0894 54.7134 47.9551 54.7334 47.888L54.732 47.8837Z" fill="#FEFEFB"/>
<path d="M128.131 61.9551H127.417C127.345 61.9501 127.274 61.9501 127.202 61.9551C126.94 61.9908 126.897 61.6037 126.605 61.6594C126.398 61.7174 126.179 61.7174 125.971 61.6594C125.734 61.5522 125.545 61.3623 125.438 61.1253C125.399 61.0146 125.401 60.8932 125.445 60.784C125.488 60.6748 125.57 60.5853 125.676 60.5326C126.144 60.2469 126.722 60.1455 127.457 60.2026C127.475 60.2026 127.491 60.2283 127.508 60.2426C127.672 59.9113 128.056 60.0498 128.285 59.8827C128.872 59.476 129.543 59.2075 130.249 59.0972C130.472 59.0582 130.676 58.9456 130.829 58.7773C130.957 58.6289 131.121 58.5154 131.305 58.4473C131.489 58.3791 131.687 58.3585 131.881 58.3874C132 58.4002 132.124 58.3702 132.238 58.3945C132.468 58.4402 132.514 58.2931 132.634 58.1417C132.808 57.9218 132.968 57.5933 133.359 57.6761C133.711 57.3062 134.301 57.3676 134.636 56.9691C134.938 56.9577 135.135 56.7064 135.44 56.6564C135.88 56.585 137.31 55.7223 137.583 55.4538C137.743 55.26 137.974 55.1374 138.224 55.1125C138.281 55.1089 138.336 55.0922 138.386 55.0637C138.435 55.0353 138.478 54.9957 138.51 54.9482C138.731 54.6797 138.899 54.3355 139.338 54.3912C139.508 54.0241 139.901 53.9313 140.183 53.7042C140.723 53.2758 141.302 52.893 141.779 52.3888C141.922 52.246 142.254 52.246 142.139 51.909C142.34 51.805 142.522 51.6684 142.679 51.5048C142.86 51.3491 142.88 51.1006 143.07 50.9435C143.26 50.7864 143.338 50.5807 143.485 50.4093C143.515 50.3748 143.538 50.3347 143.552 50.2912C143.567 50.2478 143.572 50.2021 143.568 50.1565C143.568 49.8952 143.568 49.6324 143.568 49.371C143.568 49.301 143.585 49.2025 143.548 49.1682C143.455 49.0839 143.464 48.9211 143.397 48.8826C142.957 48.6069 142.938 47.9971 142.529 47.7543C142.33 47.6357 142.199 47.3458 141.896 47.3958C141.723 47.4243 141.637 47.2744 141.567 47.1687C141.453 46.9944 141.265 46.963 141.11 46.883C140.908 46.7731 140.583 46.8545 140.565 46.4831C140.565 46.4146 140.469 46.3974 140.395 46.4003C140.089 46.4146 139.941 46.2232 139.786 45.989C139.632 45.7547 139.295 45.6519 139.039 45.5691C138.759 45.4924 138.496 45.3609 138.267 45.182C138.104 45.0681 137.924 44.9817 137.734 44.9264C137.374 44.7921 137.02 44.6493 136.756 44.3637C136.634 44.2308 136.494 44.2937 136.369 44.2551C135.906 44.1123 134.468 43.3196 134.061 42.944C133.918 42.8012 133.742 42.8897 133.616 42.8012C132.925 42.3099 132.083 42.0699 131.441 41.4944C131.32 41.3966 131.183 41.3195 131.037 41.2658C130.979 41.2416 130.869 41.2544 130.863 41.1873C130.829 40.7003 130.354 40.5946 130.097 40.3046C129.949 40.1313 129.824 39.9392 129.726 39.7334C129.584 39.4066 129.412 39.0935 129.213 38.7979C129.102 38.6479 128.842 38.4351 129.129 38.1495C129.173 38.067 129.196 37.9743 129.193 37.8807C129.191 37.787 129.164 37.6956 129.116 37.6153C128.83 37.3497 129.116 37.1083 129.192 37.0283C129.546 36.6841 129.763 36.2385 130.13 35.9043C130.37 35.6801 130.741 35.5915 130.844 35.2116C130.869 35.1145 130.987 35.1016 131.084 35.1116C131.181 35.1216 131.287 35.1302 131.291 34.9945C131.298 34.9121 131.329 34.8334 131.38 34.768C131.43 34.7026 131.499 34.6533 131.577 34.626C131.915 34.4975 132.148 34.1976 132.508 34.1147C132.574 34.1004 132.651 34.1304 132.7 34.0576C133.128 33.4663 133.914 33.3335 134.389 32.7951C134.552 32.6108 134.836 32.7265 135.002 32.5451C135.025 32.5208 135.095 32.5451 135.145 32.5451C135.134 32.5876 135.117 32.6281 135.093 32.6651C135.016 32.7559 134.932 32.84 134.84 32.9164C134.719 33.0107 134.729 33.0778 134.84 33.175C134.952 33.2721 135.028 33.3035 135.137 33.195C135.205 33.1079 135.261 33.0117 135.302 32.9093C135.498 32.5811 135.713 32.2645 135.946 31.961C135.97 31.9211 136.004 31.8881 136.044 31.8651C136.085 31.8421 136.131 31.8299 136.177 31.8296C136.767 31.8224 137.193 31.4097 137.694 31.1854C137.878 31.1026 138.02 30.9369 138.25 30.9755C138.428 31.0041 138.535 30.8627 138.678 30.8127C139.321 30.5856 139.879 30.1157 140.605 30.1171C140.672 30.1171 140.782 30.1171 140.8 30.0886C140.966 29.7758 141.293 29.8858 141.537 29.7844C141.782 29.683 141.977 29.5901 142.214 29.5159C142.553 29.4089 142.899 29.323 143.248 29.2588C143.538 29.2176 143.824 29.1565 144.105 29.076C144.401 28.9788 144.677 28.8217 145.004 28.8289C145.299 28.836 145.558 28.5932 145.873 28.6861C146.026 28.7318 146.121 28.5947 146.245 28.5504C146.659 28.3741 147.102 28.2744 147.552 28.2562C148.361 28.2647 149.171 28.2762 149.98 28.2562C150.729 28.2302 151.468 28.4292 152.103 28.8275C152.365 28.9888 152.616 29.2388 152.982 29.1202C153.059 29.0945 153.096 29.1559 153.142 29.2145C153.473 29.643 153.667 30.1657 154.069 30.5442C154.137 30.6084 154.116 30.6441 154.061 30.6984C153.857 30.8969 153.657 31.1026 153.453 31.3026C153.406 31.3483 153.373 31.4082 153.282 31.4068C152.75 31.3925 152.139 31.5496 151.711 31.234C151.335 30.927 150.853 30.7803 150.369 30.8255C150.321 30.8255 150.268 30.737 150.211 30.697C149.782 30.3928 149.762 30.3899 149.28 30.7627C149.204 30.8145 149.114 30.8392 149.023 30.8327C148.547 30.8527 148.043 30.7227 147.634 31.1083C147.597 31.144 147.492 31.1269 147.427 31.1155C147.072 31.0569 146.748 31.1997 146.445 31.3311C146.276 31.404 146.129 31.3725 145.975 31.404C145.723 31.4568 145.466 31.0298 145.235 31.3868C145.072 31.6368 144.774 31.5097 144.568 31.7153C144.448 31.8176 144.307 31.8936 144.156 31.9383C144.004 31.9831 143.845 31.9957 143.688 31.9753C143.518 31.9501 143.343 31.9654 143.179 32.02C143.016 32.0746 142.867 32.1669 142.746 32.2895C142.7 32.3366 142.637 32.3966 142.58 32.398C142.304 32.398 142.033 32.398 141.78 32.5408C141.603 32.6451 141.473 32.2223 141.23 32.4951C141.116 32.6222 140.863 32.6265 140.675 32.6865C140.376 32.7808 139.406 33.3806 139.131 33.602C138.992 33.7098 138.831 33.7854 138.659 33.8234C138.197 33.9262 138.207 33.9319 137.67 34.3461C137.527 34.4546 137.337 34.5946 137.113 34.5418C137 34.5228 136.884 34.5291 136.774 34.5602C136.664 34.5913 136.562 34.6465 136.476 34.7217C136.063 35.0359 135.595 35.253 135.169 35.5401C135.135 35.5644 135.049 35.5501 135.043 35.5715C134.9 36.0428 134.461 36.1499 134.111 36.3899C133.854 36.567 133.539 36.7084 133.347 36.974C133.312 37.0203 133.267 37.0576 133.215 37.0824C133.163 37.1073 133.106 37.1191 133.048 37.1169C133.002 37.1134 132.955 37.1202 132.912 37.1368C132.868 37.1535 132.829 37.1795 132.797 37.2131C132.764 37.2467 132.74 37.2869 132.725 37.331C132.71 37.3752 132.706 37.422 132.711 37.4682C132.724 37.6696 132.554 37.7824 132.495 37.9524C132.447 38.0952 132.222 38.1609 132.282 38.3608C132.342 38.5608 132.375 38.8379 132.521 38.9678C132.818 39.2378 132.982 39.6905 133.501 39.7062C133.644 39.7062 133.735 39.9847 133.946 39.9919C134.375 40.6403 135.197 40.7474 135.689 41.303C135.719 41.3387 135.77 41.3987 135.792 41.3901C136.243 41.2244 136.384 41.6929 136.689 41.8186C136.933 41.92 137.088 42.1542 137.427 42.1385C137.674 42.1271 137.934 42.377 138.184 42.517C138.262 42.5612 138.342 42.6841 138.401 42.6712C138.778 42.5898 138.958 42.8597 139.168 43.0725C139.327 43.232 139.53 43.3408 139.751 43.3853C139.871 43.411 139.979 43.4225 140.052 43.5281C140.13 43.6459 140.242 43.7372 140.373 43.79C140.504 43.8428 140.648 43.8546 140.786 43.8238C140.892 43.8081 140.999 43.8409 141.022 43.9323C141.107 44.288 141.45 44.298 141.687 44.3722C141.862 44.4171 142.023 44.5056 142.154 44.6293C142.383 44.8564 142.594 45.1035 142.901 45.2363C143.251 45.3891 143.473 45.7048 143.758 45.9376C144.196 46.2956 144.649 46.6374 145.118 46.963C145.558 47.2701 145.936 47.62 146.136 48.1313C146.152 48.1734 146.174 48.2126 146.203 48.247C146.519 48.6183 146.55 49.0539 146.59 49.5238C146.619 49.8637 146.626 50.2379 146.812 50.565C146.836 50.605 146.851 50.6495 146.857 50.6958C146.862 50.742 146.858 50.7889 146.845 50.8335C146.663 51.3777 146.615 51.9761 146.185 52.4174C146.025 52.5802 145.818 52.7202 145.786 52.9644C145.755 53.2086 145.519 53.2286 145.386 53.36C145.312 53.4329 145.168 53.3457 145.128 53.5271C145.027 53.9856 144.595 54.1455 144.271 54.3841C144.067 54.5355 143.821 54.6426 143.854 54.9639C143.868 55.1067 143.754 55.0767 143.667 55.1067C143.353 55.2039 142.964 55.2296 142.996 55.7166C142.991 55.7381 142.981 55.7581 142.967 55.7748C142.953 55.7915 142.935 55.8044 142.914 55.8123C142.3 55.8923 141.914 56.495 141.282 56.5264C141.139 56.5335 141.093 56.6564 141.012 56.7335C140.77 56.9634 140.538 57.2019 140.298 57.439C140.165 57.5719 140.048 57.7247 139.822 57.6718C139.765 57.6558 139.704 57.6589 139.648 57.6805C139.593 57.7022 139.546 57.7412 139.515 57.7918C139.47 57.861 139.404 57.9139 139.327 57.943C139.25 57.972 139.166 57.9756 139.087 57.9532C139.016 57.9367 138.941 57.9477 138.879 57.984C138.816 58.0204 138.769 58.0793 138.748 58.1489C138.677 58.4174 138.548 58.5559 138.264 58.5273C138.014 58.8473 137.664 58.8387 137.311 58.813C137.264 58.811 137.218 58.8226 137.177 58.8464C137.137 58.8702 137.104 58.9052 137.083 58.9472C136.841 59.3014 136.343 59.3328 136.127 59.7385C136.016 59.9498 135.656 59.6856 135.507 59.947C135.095 59.9998 134.703 60.0998 134.432 60.4526C134.363 60.5426 134.269 60.5226 134.178 60.5283C133.661 60.5393 133.157 60.6909 132.72 60.9667C132.46 61.141 132.163 61.1096 131.891 61.2124C131.584 61.3266 131.343 61.5209 131.067 61.6409C130.791 61.7608 130.344 61.5552 130.097 61.7023C129.775 61.8937 129.435 61.7423 129.11 61.9308C128.865 62.0708 128.465 61.9551 128.131 61.9551ZM135.145 42.9911C135.145 42.8997 135.137 42.804 135.002 42.8183C134.96 42.8183 134.888 42.8455 134.888 42.8612C134.888 42.9854 135.013 43.0168 135.07 43.1011C135.093 43.0654 135.12 43.0283 135.145 42.9911ZM137.858 55.8451L137.93 55.9537L138.117 55.7109C138.079 55.6924 138.038 55.6785 137.997 55.6695C137.863 55.6595 137.86 55.7552 137.857 55.848L137.858 55.8451ZM129.809 37.2268C129.772 37.2825 129.725 37.3211 129.729 37.3539C129.743 37.4159 129.766 37.4758 129.795 37.5325C129.819 37.4953 129.863 37.4596 129.862 37.4239C129.852 37.3564 129.834 37.2903 129.809 37.2268ZM142.122 54.1884C142.104 54.1613 142.087 54.1056 142.066 54.1041C142.002 54.1041 141.923 54.0684 141.883 54.1498C141.874 54.1698 141.913 54.237 141.933 54.237C141.997 54.2412 142.073 54.2727 142.122 54.1884Z" fill="#FEFEFB"/>
<path d="M23.1535 51.4433C23.0678 50.9834 23.2377 50.5793 23.4634 50.2094C23.6182 49.9389 23.7409 49.6513 23.829 49.3524C23.9147 49.0939 23.9404 48.8383 24.2789 48.754C24.4003 48.7226 24.5788 48.5555 24.3746 48.3741C24.2875 48.297 24.3603 48.2641 24.4003 48.2213C24.4646 48.1513 24.5574 48.0956 24.5931 48.0142C24.6617 47.8599 24.4788 47.5857 24.7202 47.5357C25.0059 47.47 24.8045 47.2501 24.9016 47.1601C24.9987 47.0701 24.9801 46.8573 25.1001 46.8159C25.4943 46.6816 25.52 46.2689 25.7171 45.9989C25.8977 45.7231 26.0489 45.4292 26.1684 45.122C26.2313 44.9792 26.257 44.8064 26.357 44.705C26.5998 44.4622 26.7854 44.148 27.1496 44.0423C27.1239 43.6567 27.4238 43.4339 27.6124 43.1654C27.8195 42.8711 28.2008 42.6969 28.2094 42.2684C28.5707 42.2684 28.565 41.8957 28.7549 41.72C29.2762 41.2373 29.5633 40.5231 30.2603 40.2118C30.3631 40.1661 30.3403 40.0147 30.4031 39.9147C30.5602 39.6548 30.6573 39.3649 31.0372 39.3791C31.0758 39.3791 31.1529 39.3391 31.1515 39.3249C31.1215 39.0735 31.4229 39.0235 31.46 38.8078C31.51 38.5108 31.7871 38.3337 31.8885 38.058C31.9185 37.9766 31.9956 37.8638 32.0641 37.8538C32.4683 37.7952 32.614 37.4396 32.8511 37.1954C33.0882 36.9512 33.3695 36.7384 33.5195 36.4027C33.6123 36.1956 33.9208 36.1999 34.0594 35.9971C34.2023 35.7632 34.3736 35.5478 34.5692 35.3558C34.7535 35.193 34.9848 35.083 35.1605 34.8959C35.6661 34.3532 36.2788 33.9362 36.8415 33.4677C37.3328 33.0535 37.8413 32.6222 38.1869 32.0395C38.3767 31.7491 38.656 31.5285 38.9824 31.4111C39.3181 31.2954 39.3252 30.9169 39.6523 30.8098C39.9514 30.7118 40.2208 30.5393 40.4349 30.3085C40.642 30.0786 40.8634 29.87 41.0819 29.6587C41.3305 29.4308 41.6245 29.258 41.9446 29.1516C42.0456 29.1268 42.1401 29.0802 42.2212 29.0151C42.3024 28.95 42.3683 28.8679 42.4145 28.7746C42.6301 28.2918 43.1286 28.2519 43.5056 28.1647C43.9241 28.0662 44.2926 27.8605 44.7068 27.7677C45.0967 27.6806 45.7479 27.7677 46.0193 28.0348C46.2064 28.2162 46.4021 28.3932 46.572 28.5918C46.8577 28.9188 47.0191 29.2716 46.7834 29.7101C46.6759 29.8784 46.6143 30.0719 46.6049 30.2714C46.6377 30.8312 46.2278 31.0369 45.8465 31.0826C45.2623 31.1526 44.8467 31.5568 44.2983 31.6682C44.0969 31.711 44.2326 31.9452 44.0741 31.961C43.6884 31.9995 43.637 32.5037 43.2414 32.5322C42.8729 32.5665 42.7615 32.9607 42.4873 33.125C42.2816 33.2492 42.1274 33.5191 41.7818 33.2678C41.6032 33.135 41.5947 33.3349 41.7318 33.4549C41.5747 33.582 41.4918 33.7791 41.2505 33.8234C40.5078 33.9662 40.4407 34.039 40.3093 34.7403C40.3007 34.786 40.3293 34.8531 40.3093 34.8831C40.0879 35.1445 39.7894 35.3416 39.6566 35.6772C39.191 35.6543 38.971 36.0828 38.6054 36.2413C38.5425 36.2642 38.4844 36.2986 38.434 36.3427C38.3369 36.4384 38.2455 36.1571 38.1198 36.3527C38.0622 36.4504 38.0293 36.5608 38.0241 36.6741C37.9984 36.884 37.7142 36.9355 37.6885 37.1026C37.6256 37.5167 37.2429 37.6267 37.0272 37.8895C36.7915 38.1751 36.4559 38.338 36.1546 38.5379C36.0203 38.6265 35.8318 38.725 35.7975 38.8536C35.6747 39.3106 35.1348 39.4248 35.0077 39.8876C34.9777 39.9947 34.7106 40.0618 34.5421 40.099C34.3216 40.1438 34.1167 40.2458 33.948 40.3946C33.7794 40.5374 33.6994 40.6488 33.9365 40.8045C34.0979 40.9116 34.0251 41.0216 33.9208 41.1501C33.6523 41.4829 33.2724 41.6914 33.0039 42.0371C32.664 42.4755 32.2055 42.8183 31.9042 43.2982C31.6799 43.6595 31.3872 43.9066 30.9201 43.8195C30.8389 43.7988 30.7531 43.8052 30.6757 43.8377C30.5984 43.8701 30.5338 43.9269 30.4917 43.9994C30.461 44.0579 30.4538 44.1258 30.4717 44.1894C30.4988 44.2708 30.5916 44.2551 30.6559 44.2437C30.6959 44.2351 30.7216 44.1737 30.7616 44.1551C30.8436 44.1139 30.9341 44.0925 31.0258 44.0925C31.1176 44.0925 31.2081 44.1139 31.29 44.1551C31.1743 44.2879 31.1758 44.4822 31.0287 44.605C30.6641 44.8903 30.3736 45.2592 30.1817 45.6805C30.1046 45.8633 29.9475 45.7761 29.8661 45.8918C29.8341 45.9553 29.7866 46.0095 29.7279 46.0495C29.6691 46.0895 29.6012 46.1139 29.5305 46.1203C29.4705 46.1203 29.1806 46.2632 29.4433 46.4531C29.4562 46.4631 29.4533 46.4974 29.4519 46.5203C29.4505 46.5431 28.9149 47.3772 28.8806 47.3858C28.8118 47.3966 28.7477 47.4278 28.6968 47.4755C28.6459 47.5231 28.6104 47.5848 28.595 47.6528C28.4923 48.0433 28.2918 48.4012 28.0123 48.6926C27.6938 49.0296 27.5652 49.4681 27.3067 49.8352C27.2667 49.8894 27.2439 49.9637 27.1925 49.9994C26.9068 50.1979 26.8397 50.4693 26.874 50.7992C26.914 51.1791 26.5883 51.4376 26.5226 51.799C26.4764 52.0284 26.497 52.2662 26.5821 52.4842C26.6672 52.7022 26.8131 52.8912 27.0025 53.0287C27.3339 53.25 27.7338 53.2115 28.068 53.3914C28.4507 53.1201 28.8849 53.28 29.2934 53.2572C29.5119 53.2458 29.7361 53.1886 29.9646 53.3714C30.0775 53.4614 30.3717 53.4528 30.5688 53.3386C30.6259 53.3057 30.6602 53.2372 30.7459 53.2472C31.4486 53.3286 32.1241 53.0087 32.8282 53.1044C33.0101 53.1046 33.1904 53.137 33.361 53.2C33.5005 53.2622 33.6516 53.2944 33.8044 53.2944C33.9572 53.2944 34.1083 53.2622 34.2479 53.2C34.4158 53.1282 34.5982 53.0964 34.7806 53.1072C35.399 53.0986 36.0175 53.1072 36.6373 53.0986C36.8158 53.0986 37.0286 53.1929 37.1715 53.0187C37.3357 52.8173 37.4471 53.1615 37.5642 53.0487C37.707 52.9215 37.797 52.943 37.9156 53.0687C38.0912 53.2543 38.2512 53.4771 38.5668 53.3914C38.6797 53.36 38.7268 53.4686 38.7968 53.5243C38.9396 53.6342 39.0167 53.8099 39.2395 53.8427C39.3098 53.8594 39.3708 53.903 39.4092 53.9642C39.4477 54.0254 39.4606 54.0992 39.4452 54.1698C39.4309 54.2269 39.0838 54.3441 39.0067 54.2998C38.6868 54.117 38.4069 54.2912 38.1912 54.454C37.8784 54.6897 37.5485 54.6725 37.2072 54.6725C37.169 54.667 37.1327 54.6525 37.1011 54.6303C37.0696 54.608 37.0438 54.5787 37.0257 54.5446C37.0076 54.5105 36.9978 54.4727 36.9971 54.4341C36.9964 54.3956 37.0047 54.3574 37.0215 54.3226C37.0972 54.1798 37.3071 54.137 37.3071 53.9399C37.3071 53.8499 37.3443 53.7385 37.24 53.6856C37.2092 53.6684 37.1733 53.6622 37.1385 53.6682C37.1037 53.6742 37.0719 53.6919 37.0486 53.7185C36.7457 54.055 36.3469 54.2908 35.906 54.394C35.5033 54.5026 35.1919 54.8768 34.7263 54.8225C34.6049 54.8082 34.5378 54.9311 34.4336 54.9753C33.8794 55.211 33.291 55.321 32.7197 55.4652C32.1741 55.608 31.5928 55.7794 31.0244 55.6537C30.8736 55.6113 30.7127 55.6219 30.5688 55.6837C30.4474 55.738 30.3545 55.8266 30.1974 55.8266C29.6504 55.8137 29.0849 55.9065 28.5593 55.8023C27.7966 55.6494 26.9882 55.7052 26.2741 55.2895C26.047 55.1581 25.6414 55.3438 25.5943 54.8853C25.5857 54.8097 25.4786 54.8325 25.4115 54.8211C24.7345 54.7025 24.5117 54.5183 24.1789 53.8085C24.1603 53.7685 24.1418 53.6971 24.1189 53.6956C23.7719 53.6671 23.8019 53.3886 23.7119 53.1572C23.5848 52.8316 23.6062 52.4131 23.2191 52.2203L23.1535 51.4433ZM39.3738 35.3844C39.478 35.2216 39.708 35.2644 39.8208 35.0988C39.8794 35.0145 39.8422 34.9559 39.7894 34.9674C39.6537 34.9902 39.5694 34.8045 39.5109 34.8502C39.4157 34.9074 39.3153 34.9552 39.211 34.9931C39.1353 35.0302 39.1481 35.1359 39.1767 35.1787C39.2341 35.2548 39.3002 35.3238 39.3738 35.3844ZM37.3086 37.1654C37.2286 37.0997 37.1486 36.9826 37.0558 36.9712C36.8787 36.9483 36.7801 37.0811 36.7387 37.2482C36.7173 37.3339 36.7758 37.3739 36.8458 37.3911C36.9958 37.4182 37.2986 37.2754 37.3086 37.1654ZM30.0246 45.242C30.1203 45.2677 30.1532 45.2034 30.1675 45.1363C30.1974 44.9835 30.0375 44.6464 29.9618 44.6836C29.9118 44.7075 29.8673 44.7416 29.8311 44.7836C29.795 44.8256 29.768 44.8747 29.7518 44.9278C29.7218 45.1106 29.8661 45.1977 30.0246 45.242ZM43.8784 30.7512L43.6599 30.5342C43.5428 30.6513 43.4256 30.7684 43.31 30.8884C43.31 30.8884 43.3342 30.9326 43.3499 30.9355C43.4378 30.9624 43.5306 30.9688 43.6213 30.9541C43.7185 30.9006 43.8067 30.8322 43.8827 30.7512H43.8784ZM37.3086 35.7886C37.3086 35.8357 37.3086 35.8814 37.3086 35.9314C37.3086 36.03 37.3214 36.1085 37.4514 36.1085C37.5814 36.1085 37.5842 36.0228 37.5942 35.9271C37.6043 35.8708 37.5981 35.8128 37.5764 35.7599C37.5546 35.7071 37.5182 35.6615 37.4714 35.6286C37.4368 35.601 37.4039 35.5715 37.3728 35.5401C37.3466 35.5747 37.325 35.6126 37.3086 35.6529C37.3031 35.698 37.3031 35.7435 37.3086 35.7886ZM31.033 40.2475C30.9573 40.2389 30.8901 40.2561 30.9101 40.3389C30.9101 40.3618 30.9815 40.3803 31.023 40.3875C31.0915 40.3989 31.1544 40.3789 31.1401 40.2961C31.1358 40.2732 31.0672 40.2618 31.033 40.2475ZM30.7187 40.4774C30.7016 40.4503 30.6845 40.3946 30.663 40.3932C30.5988 40.3932 30.5202 40.3575 30.4802 40.4389C30.4717 40.4589 30.5102 40.526 30.5302 40.526C30.5945 40.5303 30.6702 40.5617 30.7187 40.4774ZM25.163 47.7185C25.1732 47.6844 25.1723 47.6479 25.1605 47.6143C25.1487 47.5807 25.1266 47.5517 25.0973 47.5314C25.0744 47.5671 25.0273 47.6057 25.0316 47.6385C25.0462 47.7005 25.0683 47.7604 25.0973 47.8171L25.163 47.7185Z" fill="#FEFEFB"/>
<path d="M0.442946 46.8142C0.371535 46.5914 0.538638 46.2843 0.655752 46.0086C0.75565 45.7386 0.825576 45.4584 0.864271 45.1731C0.968532 44.619 0.908547 44.6018 1.15706 44.3348C1.23418 44.2519 1.3513 44.1919 1.31845 44.0491C1.19276 43.4935 1.53697 43.0494 1.66408 42.5481C1.67407 42.5081 1.74977 42.4695 1.74263 42.4424C1.58838 41.7768 2.09254 41.2998 2.23537 40.7114C2.28678 40.4971 2.27107 40.1829 2.56814 40.0644C2.58322 40.0484 2.59411 40.029 2.59984 40.0078C2.60558 39.9866 2.60597 39.9643 2.60099 39.943C2.32534 39.6288 2.65384 39.4345 2.71525 39.1789C2.76402 38.9162 2.83964 38.6592 2.94091 38.4119C3.04517 38.192 3.23512 38.0006 3.17656 37.7235C3.14657 37.5807 3.29368 37.5336 3.34224 37.4379C3.59361 36.9237 3.98494 36.4695 4.02921 35.8668C4.03981 35.7759 4.08354 35.692 4.15204 35.6312C4.43768 35.3041 4.58051 34.8785 4.91043 34.5886C4.98041 34.5272 5.06039 34.4629 5.03183 34.3543C4.94185 34.0173 5.15037 33.7831 5.31747 33.5431C5.33927 33.5048 5.35516 33.4634 5.3646 33.4203C5.45745 32.9407 5.6303 32.4801 5.8759 32.0578C6.12013 31.675 6.24581 31.2151 6.42577 30.7895C6.43434 30.7695 6.4629 30.7467 6.45862 30.7324C6.2958 30.2725 6.67428 29.9554 6.80711 29.5898C6.93993 29.2242 7.10989 28.8543 7.25414 28.4929C7.34661 28.2391 7.49275 28.0082 7.68261 27.8159C7.80258 27.6974 7.9254 27.5946 7.88541 27.3975C7.78972 26.9404 7.97682 26.5405 8.19676 26.1721C8.49342 25.6854 8.63536 25.1201 8.60381 24.551C8.58011 24.3448 8.60506 24.136 8.67665 23.9412C8.88802 23.4413 9.3322 23.3699 9.7521 23.2642C9.96633 23.2071 10.1891 23.1942 10.4105 23.1385C10.9261 23.01 11.4231 23.1499 11.733 23.647C11.7773 23.7169 11.7459 23.8098 11.8759 23.8341C12.1315 23.8798 12.1615 24.084 12.1615 24.3097C12.1786 24.6739 12.0987 25.0352 12.2801 25.4037C12.3743 25.5965 12.3315 25.8736 12.1158 26.1178C11.8629 26.401 11.7029 26.7549 11.6573 27.1318C11.5902 27.7145 11.1718 28.1216 10.9689 28.6343C10.889 28.8357 10.6833 28.9899 10.7276 29.2484C10.7347 29.2717 10.7347 29.2966 10.7276 29.3199C10.5948 29.5641 10.2491 29.6398 10.2291 29.9811C10.212 30.2411 10.1477 30.4867 9.82922 30.5524C9.70497 30.5767 9.72782 30.6867 9.72782 30.7781C9.72782 30.9209 9.72782 31.0637 9.72782 31.2065C9.72782 31.5165 9.77495 31.845 9.37648 31.9821C9.26936 32.0192 9.28936 32.142 9.30221 32.2306C9.34077 32.4834 9.15082 32.6448 9.06941 32.849C8.97229 33.0904 8.67808 32.899 8.51812 33.0904C8.43099 33.1961 8.18248 33.0018 8.13821 32.7862C8.11964 32.7005 8.07108 32.6776 8.00538 32.6947C7.80686 32.7447 7.71974 32.9347 7.5912 33.0604C7.57395 33.0921 7.56937 33.1292 7.57838 33.1642C7.58739 33.1992 7.60932 33.2294 7.63976 33.2489C7.74259 33.3274 7.79829 33.4617 7.98967 33.3746C8.18105 33.2875 8.38957 33.506 8.28817 33.5902C8.03252 33.803 8.2996 34.1615 8.02109 34.3515C7.97539 34.3815 7.99824 34.5343 8.13535 34.55C8.2139 34.5586 8.27817 34.53 8.29674 34.4586C8.31531 34.3872 8.29674 34.2701 8.31959 34.173C8.31959 34.1473 8.391 34.1258 8.43385 34.1158C8.51669 34.0958 8.56239 34.1444 8.58524 34.2172C8.5924 34.2405 8.5924 34.2654 8.58524 34.2886C8.45099 34.64 8.21105 34.9599 8.26104 35.367C7.76402 35.3798 7.82543 36.0296 7.37268 36.1325C7.15131 36.1825 7.07418 36.6166 7.15702 36.9109C7.32983 37.515 7.30698 37.6007 6.82996 38.0834C6.76841 38.1564 6.70002 38.2234 6.62572 38.2834C6.46576 38.3962 6.46719 38.5019 6.57859 38.6561C6.59664 38.6986 6.60374 38.7449 6.59925 38.7908C6.59476 38.8367 6.57881 38.8808 6.55288 38.9189C6.45291 39.0246 6.43862 38.8261 6.3515 38.8261C6.3058 38.8261 6.23867 38.8347 6.21868 38.8104C6.01301 38.5562 5.92446 38.8318 5.8859 38.9204C5.84662 39.0576 5.84318 39.2027 5.8759 39.3417C5.90219 39.4595 5.88664 39.5829 5.83191 39.6905C5.77718 39.7981 5.68669 39.8834 5.57598 39.9316C5.34032 40.0744 5.3646 40.3072 5.54027 40.5657C5.90875 41.1098 5.89447 41.0998 5.50314 41.7083C5.25034 42.0996 4.95899 42.4966 5.0204 43.0037C5.02292 43.1787 4.95797 43.348 4.83901 43.4764C4.69649 43.654 4.60734 43.8685 4.58193 44.0948C4.5523 44.1897 4.50157 44.2766 4.43355 44.3491C4.36553 44.4216 4.28198 44.4777 4.18917 44.5133C3.9221 44.6033 4.00922 44.7889 4.05635 44.8975C4.23631 45.316 4.18346 45.6459 3.83926 45.9372C3.53505 46.1929 3.47935 46.3471 3.3051 46.7028C3.16228 46.977 3.16228 47.3255 2.84379 47.5197C2.72667 47.5911 2.6624 47.7696 2.6067 47.9125C2.42817 48.3638 2.39961 48.4152 2.03541 48.7365C1.54839 49.165 1.53268 49.165 1.13849 48.7208C1.07556 48.6289 1.02737 48.5277 0.995668 48.4209C0.835707 48.1053 0.862844 47.7068 0.501504 47.4683C0.411526 47.4069 0.46437 47.1155 0.442946 46.8142ZM1.89831 47.3854C2.09112 47.4183 2.20252 47.3712 2.18395 47.1369C2.13539 46.6613 1.8983 47.1726 1.77262 47.0498C1.59266 46.8684 1.6298 47.0498 1.6098 47.1484C1.5541 47.4012 1.72121 47.4012 1.89831 47.3854ZM2.74667 42.2653C2.74667 42.0239 2.71953 41.9453 2.60385 41.9611C2.51815 41.9711 2.35819 41.9182 2.3639 42.0068C2.39831 42.1431 2.45948 42.2713 2.54386 42.3838L2.74667 42.2653ZM6.10728 32.8161C6.1744 32.6733 6.33008 32.6962 6.4372 32.6262C6.44062 32.6191 6.44239 32.6113 6.44239 32.6033C6.44239 32.5954 6.44062 32.5876 6.4372 32.5805C6.39809 32.5251 6.34978 32.4768 6.29437 32.4377C6.15155 32.3677 6.1387 32.5434 6.05872 32.5933C6.03301 32.6105 6.05872 32.7119 6.05872 32.7733C6.063 32.789 6.09014 32.8019 6.10728 32.8161ZM5.57312 34.53L5.46315 34.6C5.54456 34.6614 5.57883 34.7857 5.70023 34.7857C5.71594 34.7857 5.74022 34.7128 5.74451 34.6728C5.76022 34.5429 5.66738 34.5343 5.57312 34.5314V34.53ZM1.29845 46.0458C1.28131 46.0186 1.26418 45.9629 1.24275 45.9615C1.17848 45.9615 1.09993 45.9258 1.05994 46.0072C1.05137 46.0272 1.08993 46.0943 1.10993 46.0943C1.1742 46.1 1.24989 46.1315 1.29845 46.0472V46.0458Z" fill="#FEFEFB"/>
<path d="M17.3193 3.9548C17.3015 3.8519 17.3109 3.74617 17.3465 3.648C17.3821 3.54983 17.4426 3.46262 17.5221 3.39494C17.8591 3.08644 18.2105 2.78794 18.3462 2.31092C18.3861 2.16809 18.5704 2.07097 18.6875 1.95386C18.8093 1.80788 18.9468 1.67569 19.0974 1.55967C19.1902 1.50111 19.0974 1.0655 19.3945 1.38971C19.4116 1.2069 19.5373 1.06836 19.6201 0.914112C19.6641 0.819328 19.7287 0.735607 19.8093 0.669116C19.8899 0.602625 19.9843 0.55506 20.0857 0.529922C20.3942 0.454227 20.7027 0.284267 21.0012 0.459939C21.1669 0.558486 21.3611 0.58848 21.4597 0.525638C21.6454 0.407095 21.7867 0.555631 21.9196 0.525638C22.5951 0.382816 22.8751 0.915541 23.2607 1.26974C23.2135 1.60109 23.6391 1.76105 23.5849 2.05526C23.5377 2.31377 23.7277 2.51658 23.6249 2.80508C23.5063 3.14357 23.6934 3.6106 23.5349 3.90767C23.3799 4.21757 23.1688 4.49603 22.9122 4.7289C22.8593 5.24734 22.2623 5.36445 22.1138 5.81292C21.951 5.76721 21.8867 5.94289 21.751 5.97288C21.2985 6.08685 20.8732 6.28979 20.4999 6.56987C20.2543 6.7384 20.09 6.73126 19.8201 6.54417C19.763 6.50418 19.703 6.40135 19.6687 6.40135C19.146 6.54417 18.8332 6.1057 18.4204 5.95288C18.2248 5.88004 18.012 5.77864 18.0048 5.44158C18.0048 5.17593 17.752 4.93313 17.5649 4.70319C17.471 4.60448 17.4003 4.48611 17.3578 4.35667C17.3153 4.22723 17.3021 4.08995 17.3193 3.9548Z" fill="#FEFEFB"/>
<path d="M135.229 32.4021C135.245 32.4178 135.275 32.4421 135.272 32.4478C135.259 32.4809 135.237 32.5097 135.208 32.5306C135.148 32.5606 135.119 32.5306 135.148 32.4707C135.162 32.4364 135.201 32.425 135.229 32.4021Z" fill="#FEFEFB"/>
</svg>
