<svg width="36" height="35" viewBox="0 0 36 35" fill="none" xmlns="http://www.w3.org/2000/svg">
<path fill-rule="evenodd" clip-rule="evenodd" d="M28.3966 15.514C22.7557 12.164 13.451 11.856 8.06601 13.4904C7.20108 13.7528 6.28662 13.2647 6.02478 12.3999C5.76273 11.5346 6.25026 10.6208 7.11561 10.3579C13.2974 8.48152 23.5734 8.84388 30.0674 12.6988C30.8454 13.1606 31.1003 14.1651 30.6393 14.9417C30.1779 15.7195 29.1725 15.9759 28.3966 15.514ZM28.2119 20.4759C27.8161 21.118 26.9765 21.3195 26.3351 20.9251C21.6324 18.0344 14.461 17.1969 8.89709 18.8858C8.17572 19.1038 7.4136 18.6971 7.19439 17.9768C6.97706 17.2554 7.38393 16.4947 8.10425 16.2753C14.4601 14.3465 22.3615 15.2806 27.763 18.6001C28.4044 18.9951 28.6062 19.8352 28.2119 20.4759ZM26.0706 25.241C25.7561 25.7568 25.0846 25.9183 24.5708 25.604C20.4614 23.0924 15.2889 22.5252 9.19738 23.9166C8.61038 24.0511 8.02526 23.6834 7.89152 23.0966C7.75694 22.5096 8.12348 21.9244 8.71174 21.7905C15.3779 20.2667 21.096 20.9224 25.7086 23.741C26.2229 24.0551 26.3849 24.727 26.0706 25.241ZM18.0448 0C8.3801 0 0.544922 7.83497 0.544922 17.4997C0.544922 27.1655 8.3801 35 18.0448 35C27.71 35 35.5449 27.1655 35.5449 17.4997C35.5449 7.83497 27.71 0 18.0448 0Z" fill="#FEFEFB"/>
</svg>
