<svg width="28" height="22" viewBox="0 0 28 22" fill="none" xmlns="http://www.w3.org/2000/svg">
<path d="M5.65322 11.684L14.306 3.03899C14.9027 2.44278 15.6785 2.11487 16.5139 2.11487C17.3494 2.11487 18.1251 2.44278 18.7219 3.03899L19.4081 3.72463L20.7508 2.38316L20.0646 1.69752C19.1098 0.743593 17.8566 0.236816 16.5139 0.236816C15.1713 0.236816 13.9181 0.743593 12.9633 1.69752L4.31055 10.3425L5.65322 11.684Z" fill="#FEFEFB"/>
<path d="M17.2011 5.90246L15.8584 4.56099L7.20567 13.206C5.98235 14.4282 4.0131 14.4282 2.78977 13.206C1.56645 11.9838 1.56645 10.0163 2.78977 8.79406L10.2491 1.34147L8.93622 0L1.47694 7.4526C-0.492313 9.42008 -0.492313 12.58 1.47694 14.5475C2.43173 15.5014 3.68489 16.0082 5.02756 16.0082C6.37023 16.0082 7.62339 15.5014 8.57818 14.5475L17.2011 5.90246Z" fill="#FEFEFB"/>
<path d="M25.8224 7.45216C24.8676 6.49823 23.6144 5.99146 22.2717 5.99146C20.9291 5.99146 19.6759 6.49823 18.7211 7.45216L10.0684 16.0972L11.411 17.4386L20.0638 8.79363C21.2871 7.57141 23.2564 7.57141 24.4797 8.79363C25.0764 9.38984 25.4046 10.1649 25.4046 10.9996C25.4046 11.8343 25.0764 12.6094 24.4797 13.2056L17.0204 20.6582L18.3631 21.9996L25.8224 14.547C27.7916 12.5796 27.7916 9.41965 25.8224 7.45216Z" fill="#FEFEFB"/>
<path d="M21.6185 10.314L12.9658 18.959C11.7424 20.1812 9.77319 20.1812 8.54987 18.959L7.86362 18.2733L6.55078 19.6148L7.23704 20.3004C8.19182 21.2544 9.44498 21.7611 10.7877 21.7611C12.1303 21.7611 13.3835 21.2544 14.3383 20.3004L22.991 11.6554L21.6185 10.314Z" fill="#FEFEFB"/>
</svg>
