<svg width="33" height="27" viewBox="0 0 33 27" fill="none" xmlns="http://www.w3.org/2000/svg">
<path fill-rule="evenodd" clip-rule="evenodd" d="M10.3661 27C22.8187 27 29.6327 16.6093 29.6327 7.61368C29.6327 7.32136 29.6327 7.02904 29.6194 6.73671C30.94 5.78002 32.0888 4.57087 33 3.20226C31.7851 3.74705 30.4778 4.10581 29.1044 4.27854C30.5042 3.44144 31.5738 2.09941 32.0888 0.504921C30.7815 1.28888 29.3289 1.84695 27.7839 2.15256C26.5426 0.823819 24.7863 0 22.8451 0C19.108 0 16.0708 3.0561 16.0708 6.81644C16.0708 7.34793 16.1369 7.86614 16.2425 8.37106C10.617 8.09203 5.62545 5.36811 2.28451 1.24902C1.70348 2.25886 1.37335 3.42815 1.37335 4.67717C1.37335 7.04232 2.57503 9.12845 4.38415 10.3509C3.27491 10.311 2.23169 10.0054 1.32053 9.50049C1.32053 9.52707 1.32053 9.55364 1.32053 9.5935C1.32053 12.8888 3.65786 15.6526 6.7479 16.2771C6.18007 16.4365 5.58583 16.5162 4.96519 16.5162C4.52941 16.5162 4.10684 16.4764 3.69748 16.3967C4.55582 19.1073 7.06483 21.0738 10.0228 21.127C7.69868 22.9606 4.78031 24.0502 1.61104 24.0502C1.06963 24.0502 0.528211 24.0236 0 23.9572C2.98439 25.8706 6.54982 27 10.3661 27Z" fill="white"/>
</svg>
