<svg width="35" height="35" viewBox="0 0 35 35" fill="none" xmlns="http://www.w3.org/2000/svg">
<path d="M34.6514 10.5C34.6514 10.5 34.3096 8.08691 33.2568 7.02734C31.9238 5.63281 30.4336 5.62598 29.75 5.54395C24.8555 5.18848 17.5068 5.18848 17.5068 5.18848H17.4932C17.4932 5.18848 10.1445 5.18848 5.25 5.54395C4.56641 5.62598 3.07617 5.63281 1.74316 7.02734C0.69043 8.08691 0.355469 10.5 0.355469 10.5C0.355469 10.5 0 13.3369 0 16.167V18.8193C0 21.6494 0.348633 24.4863 0.348633 24.4863C0.348633 24.4863 0.69043 26.8994 1.73633 27.959C3.06934 29.3535 4.81934 29.3057 5.59863 29.4561C8.40137 29.7227 17.5 29.8047 17.5 29.8047C17.5 29.8047 24.8555 29.791 29.75 29.4424C30.4336 29.3604 31.9238 29.3535 33.2568 27.959C34.3096 26.8994 34.6514 24.4863 34.6514 24.4863C34.6514 24.4863 35 21.6562 35 18.8193V16.167C35 13.3369 34.6514 10.5 34.6514 10.5ZM13.8838 22.0391V12.2021L23.3379 17.1377L13.8838 22.0391Z" fill="#FEFEFB"/>
</svg>
