<svg width="1439" height="46" viewBox="0 0 1439 46" fill="none" xmlns="http://www.w3.org/2000/svg">
<path d="M32.2 31.4H30.168V43H32.2V31.4ZM42.495 39.144C42.143 40.728 41.023 41.544 39.455 41.544C37.599 41.544 36.175 39.976 36.175 37.16C36.175 34.36 37.631 32.856 39.471 32.856C40.975 32.856 42.111 33.688 42.463 35.256H44.415C43.951 32.664 42.111 31.192 39.535 31.192C36.175 31.192 34.079 33.512 34.079 37.16C34.079 40.792 36.047 43.208 39.439 43.208C42.111 43.208 43.967 41.736 44.447 39.144H42.495ZM47.9094 37.192C47.9094 34.376 49.4294 32.856 51.3494 32.856C53.2694 32.856 54.7894 34.376 54.7894 37.192C54.7894 40.008 53.2694 41.544 51.3494 41.544C49.4294 41.544 47.9094 40.008 47.9094 37.192ZM56.8854 37.192C56.8854 33.624 54.7574 31.192 51.3494 31.192C47.9414 31.192 45.8134 33.624 45.8134 37.192C45.8134 40.76 47.9414 43.208 51.3494 43.208C54.7574 43.208 56.8854 40.76 56.8854 37.192ZM68.3618 43V31.4H66.3938V40.664L61.4818 31.4H58.7618V43H60.7298V33.736L65.6418 43H68.3618ZM75.0193 38.008C76.1233 38.216 77.4033 38.616 77.4033 39.8C77.4033 40.92 76.2993 41.544 74.9233 41.544C73.3233 41.544 72.2993 40.744 71.9473 39.16H69.9473C70.1873 41.704 72.0753 43.208 74.8273 43.208C77.1153 43.208 79.4353 42.008 79.4353 39.672C79.4353 37.336 77.4993 36.6 75.4673 36.2L74.0433 35.928C73.0513 35.736 72.3153 35.288 72.3153 34.392C72.3153 33.256 73.6432 32.856 74.5393 32.856C75.6753 32.856 76.8913 33.256 77.2273 34.648H79.1953C78.7313 32.232 76.9393 31.192 74.6513 31.192C72.5233 31.192 70.2673 32.28 70.2673 34.456C70.2673 36.424 71.7873 37.368 73.6113 37.736L75.0193 38.008ZM91.0103 39.544V37.832H80.4183V39.544H91.0103ZM97.7623 33.88V38.632H94.1143L97.7623 33.88ZM101.714 38.632H99.6663V31.4H97.7783L92.0343 38.696V40.28H97.7623V43H99.6663V40.28H101.714V38.632ZM104.836 36.568V34.392H102.66V36.568H104.836ZM104.836 43V40.824H102.66V43H104.836ZM110.168 43V31.4H108.76C108.168 32.664 107.352 32.808 105.672 32.856V34.168H108.264V43H110.168ZM116.431 31.192C113.999 31.192 112.463 32.44 112.463 34.168C112.463 35.16 112.927 36.232 113.951 36.808C112.575 37.496 112.111 38.616 112.111 39.704C112.111 41.992 113.999 43.208 116.431 43.208C118.863 43.208 120.751 41.992 120.751 39.704C120.751 38.616 120.287 37.512 118.911 36.808C119.967 36.184 120.399 35.16 120.399 34.168C120.399 32.44 118.847 31.192 116.431 31.192ZM116.431 37.544C117.855 37.544 118.767 38.344 118.767 39.64C118.767 40.952 117.855 41.736 116.431 41.736C115.007 41.736 114.095 40.952 114.095 39.64C114.095 38.344 115.007 37.544 116.431 37.544ZM118.511 34.408C118.511 35.512 117.695 36.248 116.431 36.248C115.183 36.248 114.335 35.512 114.335 34.408C114.335 33.304 115.183 32.648 116.431 32.648C117.695 32.648 118.511 33.304 118.511 34.408ZM124.524 36.568V34.392H122.348V36.568H124.524ZM124.524 43V40.824H122.348V43H124.524ZM130.127 31.192C127.583 31.192 125.951 32.776 125.983 35.112H127.887C127.887 33.304 128.943 32.648 130.047 32.648C131.183 32.648 131.919 33.304 131.919 34.424C131.919 36.36 129.599 38.408 125.727 41.432V43H134.175V41.336H128.095C131.599 38.904 133.903 36.664 133.903 34.264C133.903 32.296 132.271 31.192 130.127 31.192ZM139.331 41.736C137.811 41.736 137.075 40.792 136.914 39.448H135.075C135.219 41.448 136.595 43.208 139.299 43.208C141.603 43.208 143.587 41.832 143.587 39.24C143.587 36.632 141.747 35.272 139.763 35.272C138.723 35.272 137.923 35.544 137.363 35.992L137.731 33.08H143.107V31.4H136.163L135.395 37.848L137.187 37.944C137.427 37.272 138.211 36.728 139.283 36.728C140.435 36.728 141.619 37.544 141.619 39.272C141.619 40.824 140.611 41.736 139.331 41.736ZM149.074 31.4V43H151.106V38.616H152.93C155.666 38.616 157.826 37.976 157.826 35.048C157.826 31.816 155.442 31.4 152.898 31.4H149.074ZM152.898 33.032C154.322 33.032 155.714 33.176 155.714 35.064C155.714 36.728 154.53 36.952 152.994 36.952H151.106V33.032H152.898ZM166.16 43L169.104 33.608V43H171.088V31.4H167.936L165.136 40.648L162.32 31.4H159.168V43H161.152V33.608L164.096 43H166.16ZM183.354 39.544V37.832H172.762V39.544H183.354ZM189.347 38.008C190.451 38.216 191.731 38.616 191.731 39.8C191.731 40.92 190.627 41.544 189.251 41.544C187.651 41.544 186.627 40.744 186.275 39.16H184.275C184.515 41.704 186.403 43.208 189.155 43.208C191.443 43.208 193.763 42.008 193.763 39.672C193.763 37.336 191.827 36.6 189.795 36.2L188.371 35.928C187.379 35.736 186.643 35.288 186.643 34.392C186.643 33.256 187.971 32.856 188.867 32.856C190.003 32.856 191.219 33.256 191.555 34.648H193.523C193.059 32.232 191.267 31.192 188.979 31.192C186.851 31.192 184.595 32.28 184.595 34.456C184.595 36.424 186.115 37.368 187.939 37.736L189.347 38.008ZM195.402 31.4V43H197.434V38.616H199.258C201.994 38.616 204.154 37.976 204.154 35.048C204.154 31.816 201.77 31.4 199.226 31.4H195.402ZM199.226 33.032C200.65 33.032 202.042 33.176 202.042 35.064C202.042 36.728 200.858 36.952 199.322 36.952H197.434V33.032H199.226ZM203.219 43H205.299L206.195 40.424H210.899L211.811 43H214.035L209.683 31.4H207.539L203.219 43ZM208.531 33.752L210.291 38.728H206.787L208.531 33.752ZM216.634 43H218.666V33.096H222.314V31.4H212.986V33.096H216.634V43ZM225.591 31.4H223.559V43H225.591V31.4ZM226.766 43H228.846L229.742 40.424H234.446L235.358 43H237.582L233.23 31.4H231.086L226.766 43ZM232.078 33.752L233.838 38.728H230.334L232.078 33.752ZM240.778 31.4H238.746V43H246.618V41.288H240.778V31.4ZM250.312 43H252.393L253.289 40.424H257.993L258.905 43H261.129L256.777 31.4H254.633L250.312 43ZM255.625 33.752L257.385 38.728H253.881L255.625 33.752ZM261.758 31.4V38.168C261.758 41.912 263.182 43.208 266.51 43.208C269.886 43.208 271.246 41.768 271.246 38.104V31.4H269.214V38.184C269.214 40.312 268.638 41.544 266.51 41.544C264.35 41.544 263.79 40.376 263.79 38.248V31.4H261.758ZM280.938 37.192C280.938 40.872 278.698 41.368 276.474 41.368H275.434V33.032H276.474C278.698 33.032 280.938 33.528 280.938 37.192ZM273.402 31.4V43H276.57C280.25 43 283.05 41.72 283.05 37.192C283.05 32.664 280.25 31.4 276.57 31.4H273.402ZM286.934 31.4H284.902V43H286.934V31.4ZM290.909 37.192C290.909 34.376 292.429 32.856 294.349 32.856C296.269 32.856 297.789 34.376 297.789 37.192C297.789 40.008 296.269 41.544 294.349 41.544C292.429 41.544 290.909 40.008 290.909 37.192ZM299.885 37.192C299.885 33.624 297.757 31.192 294.349 31.192C290.941 31.192 288.813 33.624 288.813 37.192C288.813 40.76 290.941 43.208 294.349 43.208C297.757 43.208 299.885 40.76 299.885 37.192ZM304.297 31.4L308.313 43H310.489L314.457 31.4H312.313L309.449 40.6L306.505 31.4H304.297ZM317.669 31.4H315.637V43H317.669V31.4ZM327.548 37.192C327.548 40.872 325.308 41.368 323.084 41.368H322.044V33.032H323.084C325.308 33.032 327.548 33.528 327.548 37.192ZM320.012 31.4V43H323.18C326.86 43 329.66 41.72 329.66 37.192C329.66 32.664 326.86 31.4 323.18 31.4H320.012ZM331.512 43H339.72V41.288H333.544V37.88H339.384V36.2H333.544V33.096H339.72V31.4H331.512V43ZM343.019 37.192C343.019 34.376 344.539 32.856 346.459 32.856C348.379 32.856 349.899 34.376 349.899 37.192C349.899 40.008 348.379 41.544 346.459 41.544C344.539 41.544 343.019 40.008 343.019 37.192ZM351.995 37.192C351.995 33.624 349.867 31.192 346.459 31.192C343.051 31.192 340.923 33.624 340.923 37.192C340.923 40.76 343.051 43.208 346.459 43.208C349.867 43.208 351.995 40.76 351.995 37.192Z" fill="#FEFEFB"/>
<path d="M1396 27.5L1396 30.25L1400 26.25L1400 35H1402V26.25L1406 30.25V27.5L1401 22.5L1396 27.5Z" fill="#FEFEFB"/>
<path d="M1395 31V41H1407V31H1409V43H1393V31H1395Z" fill="#FEFEFB"/>
<rect x="0.5" y="0.5" width="1438" height="45" stroke="black"/>
</svg>
