<svg width="1439" height="153" viewBox="0 0 1439 153" fill="none" xmlns="http://www.w3.org/2000/svg">
<path d="M50.7809 112.6C50.7809 112.6 50.566 111.084 49.9043 110.418C49.0664 109.541 48.1297 109.537 47.7 109.485C44.6234 109.262 40.0043 109.262 40.0043 109.262H39.9957C39.9957 109.262 35.3766 109.262 32.3 109.485C31.8703 109.537 30.9336 109.541 30.0957 110.418C29.434 111.084 29.2234 112.6 29.2234 112.6C29.2234 112.6 29 114.384 29 116.163V117.83C29 119.609 29.2191 121.392 29.2191 121.392C29.2191 121.392 29.434 122.909 30.0914 123.575C30.9293 124.451 32.0293 124.421 32.5191 124.516C34.2809 124.683 40 124.735 40 124.735C40 124.735 44.6234 124.726 47.7 124.507C48.1297 124.455 49.0664 124.451 49.9043 123.575C50.566 122.909 50.7809 121.392 50.7809 121.392C50.7809 121.392 51 119.613 51 117.83V116.163C51 114.384 50.7809 112.6 50.7809 112.6ZM37.727 119.854V113.67L43.6695 116.773L37.727 119.854Z" fill="#FEFEFB"/>
<g clip-path="url(#clip0)">
<path d="M95.9756 123.145C95.6429 123.913 95.2491 124.621 94.7928 125.271C94.1709 126.158 93.6616 126.772 93.2692 127.113C92.6608 127.672 92.009 127.959 91.311 127.975C90.8099 127.975 90.2056 127.832 89.5021 127.543C88.7964 127.255 88.1478 127.113 87.5548 127.113C86.9328 127.113 86.2658 127.255 85.5523 127.543C84.8377 127.832 84.2621 127.983 83.822 127.998C83.1526 128.027 82.4855 127.732 81.8195 127.113C81.3944 126.742 80.8628 126.106 80.2259 125.206C79.5426 124.245 78.9808 123.13 78.5407 121.859C78.0693 120.486 77.833 119.156 77.833 117.869C77.833 116.395 78.1516 115.123 78.7897 114.058C79.2912 113.202 79.9584 112.526 80.7934 112.031C81.6284 111.535 82.5307 111.283 83.5023 111.266C84.034 111.266 84.7311 111.431 85.5975 111.754C86.4615 112.078 87.0162 112.243 87.2594 112.243C87.4413 112.243 88.0575 112.05 89.1022 111.667C90.0901 111.312 90.9239 111.164 91.607 111.222C93.4579 111.372 94.8485 112.101 95.7733 113.416C94.1179 114.419 93.2991 115.824 93.3154 117.626C93.3303 119.03 93.8395 120.198 94.8404 121.125C95.2939 121.556 95.8005 121.889 96.364 122.125C96.2418 122.479 96.1128 122.819 95.9756 123.145V123.145ZM91.7306 106.44C91.7306 107.54 91.3286 108.568 90.5274 109.519C89.5605 110.649 88.391 111.302 87.1228 111.199C87.1067 111.067 87.0973 110.928 87.0973 110.782C87.0973 109.726 87.5571 108.596 88.3737 107.671C88.7813 107.203 89.2998 106.814 89.9285 106.504C90.5559 106.198 91.1494 106.029 91.7075 106C91.7238 106.147 91.7306 106.294 91.7306 106.44V106.44Z" fill="#FEFEFB"/>
</g>
<path fill-rule="evenodd" clip-rule="evenodd" d="M140.507 115.752C136.961 113.646 131.112 113.452 127.728 114.48C127.184 114.645 126.609 114.338 126.444 113.794C126.28 113.25 126.586 112.676 127.13 112.511C131.016 111.331 137.475 111.559 141.557 113.982C142.046 114.272 142.206 114.904 141.916 115.392C141.626 115.881 140.995 116.042 140.507 115.752ZM140.391 118.871C140.142 119.274 139.614 119.401 139.211 119.153C136.255 117.336 131.747 116.809 128.25 117.871C127.797 118.008 127.317 117.752 127.18 117.3C127.043 116.846 127.299 116.368 127.752 116.23C131.747 115.018 136.713 115.605 140.109 117.692C140.512 117.94 140.639 118.468 140.391 118.871ZM139.045 121.866C138.847 122.19 138.425 122.292 138.102 122.094C135.519 120.515 132.268 120.159 128.439 121.033C128.07 121.118 127.702 120.887 127.618 120.518C127.533 120.149 127.764 119.781 128.133 119.697C132.324 118.739 135.918 119.151 138.817 120.923C139.14 121.12 139.242 121.543 139.045 121.866ZM134 106C127.925 106 123 110.925 123 117C123 123.075 127.925 128 134 128C140.075 128 145 123.075 145 117C145 110.925 140.075 106 134 106Z" fill="#FEFEFB"/>
<path d="M170.876 114.3V123H172.4V119.712H173.768C175.82 119.712 177.44 119.232 177.44 117.036C177.44 114.612 175.652 114.3 173.744 114.3H170.876ZM173.744 115.524C174.812 115.524 175.856 115.632 175.856 117.048C175.856 118.296 174.968 118.464 173.816 118.464H172.4V115.524H173.744ZM183.978 123H185.694L183.702 119.052C184.782 118.68 185.334 117.924 185.334 116.808C185.334 114.876 184.026 114.3 181.458 114.3H178.686V123H180.21V119.34H181.686C181.842 119.34 181.998 119.34 182.142 119.328L183.978 123ZM181.674 115.524C182.874 115.524 183.774 115.68 183.774 116.82C183.774 117.864 183.03 118.128 181.722 118.128H180.21V115.524H181.674ZM188.595 114.3H187.071V123H188.595V114.3ZM189.728 114.3L192.74 123H194.372L197.348 114.3H195.74L193.592 121.2L191.384 114.3H189.728ZM196.636 123H198.196L198.868 121.068H202.396L203.08 123H204.748L201.484 114.3H199.876L196.636 123ZM200.62 116.064L201.94 119.796H199.312L200.62 116.064ZM211.345 120.108C211.081 121.296 210.241 121.908 209.065 121.908C207.673 121.908 206.605 120.732 206.605 118.62C206.605 116.52 207.697 115.392 209.077 115.392C210.205 115.392 211.057 116.016 211.321 117.192H212.785C212.437 115.248 211.057 114.144 209.125 114.144C206.605 114.144 205.033 115.884 205.033 118.62C205.033 121.344 206.509 123.156 209.053 123.156C211.057 123.156 212.449 122.052 212.809 120.108H211.345ZM212.97 114.3L216.078 119.616V123H217.602V119.64L220.806 114.3H219.09L216.87 118.188L214.71 114.3H212.97ZM224.862 114.3V123H226.386V119.712H227.754C229.806 119.712 231.426 119.232 231.426 117.036C231.426 114.612 229.638 114.3 227.73 114.3H224.862ZM227.73 115.524C228.798 115.524 229.842 115.632 229.842 117.048C229.842 118.296 228.954 118.464 227.802 118.464H226.386V115.524H227.73ZM233.897 118.644C233.897 116.532 235.037 115.392 236.477 115.392C237.917 115.392 239.057 116.532 239.057 118.644C239.057 120.756 237.917 121.908 236.477 121.908C235.037 121.908 233.897 120.756 233.897 118.644ZM240.629 118.644C240.629 115.968 239.033 114.144 236.477 114.144C233.921 114.144 232.325 115.968 232.325 118.644C232.325 121.32 233.921 123.156 236.477 123.156C239.033 123.156 240.629 121.32 240.629 118.644ZM243.8 114.3H242.276V123H248.18V121.716H243.8V114.3ZM250.825 114.3H249.301V123H250.825V114.3ZM258.786 120.108C258.522 121.296 257.682 121.908 256.506 121.908C255.114 121.908 254.046 120.732 254.046 118.62C254.046 116.52 255.138 115.392 256.518 115.392C257.646 115.392 258.498 116.016 258.762 117.192H260.226C259.878 115.248 258.498 114.144 256.566 114.144C254.046 114.144 252.474 115.884 252.474 118.62C252.474 121.344 253.95 123.156 256.494 123.156C258.498 123.156 259.89 122.052 260.25 120.108H258.786ZM260.412 114.3L263.52 119.616V123H265.044V119.64L268.248 114.3H266.532L264.312 118.188L262.152 114.3H260.412Z" fill="#FEFEFB"/>
<path d="M1196.18 123H1197.7V115.572H1200.44V114.3H1193.44V115.572H1196.18V123ZM1201.61 123H1207.77V121.716H1203.14V119.16H1207.52V117.9H1203.14V115.572H1207.77V114.3H1201.61V123ZM1214.53 123H1216.24L1214.25 119.052C1215.33 118.68 1215.88 117.924 1215.88 116.808C1215.88 114.876 1214.58 114.3 1212.01 114.3H1209.24V123H1210.76V119.34H1212.24C1212.39 119.34 1212.55 119.34 1212.69 119.328L1214.53 123ZM1212.22 115.524C1213.42 115.524 1214.32 115.68 1214.32 116.82C1214.32 117.864 1213.58 118.128 1212.27 118.128H1210.76V115.524H1212.22ZM1222.87 123L1225.07 115.956V123H1226.56V114.3H1224.2L1222.1 121.236L1219.99 114.3H1217.62V123H1219.11V115.956L1221.32 123H1222.87ZM1231.79 119.256C1232.62 119.412 1233.58 119.712 1233.58 120.6C1233.58 121.44 1232.75 121.908 1231.72 121.908C1230.52 121.908 1229.75 121.308 1229.48 120.12H1227.98C1228.16 122.028 1229.58 123.156 1231.64 123.156C1233.36 123.156 1235.1 122.256 1235.1 120.504C1235.1 118.752 1233.65 118.2 1232.12 117.9L1231.06 117.696C1230.31 117.552 1229.76 117.216 1229.76 116.544C1229.76 115.692 1230.76 115.392 1231.43 115.392C1232.28 115.392 1233.19 115.692 1233.44 116.736H1234.92C1234.57 114.924 1233.23 114.144 1231.51 114.144C1229.92 114.144 1228.22 114.96 1228.22 116.592C1228.22 118.068 1229.36 118.776 1230.73 119.052L1231.79 119.256ZM1240.8 118.644C1240.8 116.532 1241.94 115.392 1243.38 115.392C1244.82 115.392 1245.96 116.532 1245.96 118.644C1245.96 120.756 1244.82 121.908 1243.38 121.908C1241.94 121.908 1240.8 120.756 1240.8 118.644ZM1247.53 118.644C1247.53 115.968 1245.94 114.144 1243.38 114.144C1240.82 114.144 1239.23 115.968 1239.23 118.644C1239.23 121.32 1240.82 123.156 1243.38 123.156C1245.94 123.156 1247.53 121.32 1247.53 118.644ZM1249.18 123H1250.7V119.16H1254.99V117.9H1250.7V115.572H1255.25V114.3H1249.18V123ZM1262.63 119.256C1263.45 119.412 1264.41 119.712 1264.41 120.6C1264.41 121.44 1263.59 121.908 1262.55 121.908C1261.35 121.908 1260.59 121.308 1260.32 120.12H1258.82C1259 122.028 1260.42 123.156 1262.48 123.156C1264.2 123.156 1265.94 122.256 1265.94 120.504C1265.94 118.752 1264.49 118.2 1262.96 117.9L1261.89 117.696C1261.15 117.552 1260.6 117.216 1260.6 116.544C1260.6 115.692 1261.59 115.392 1262.27 115.392C1263.12 115.392 1264.03 115.692 1264.28 116.736H1265.76C1265.41 114.924 1264.07 114.144 1262.35 114.144C1260.75 114.144 1259.06 114.96 1259.06 116.592C1259.06 118.068 1260.2 118.776 1261.57 119.052L1262.63 119.256ZM1267.41 123H1273.56V121.716H1268.93V119.16H1273.31V117.9H1268.93V115.572H1273.56V114.3H1267.41V123ZM1280.32 123H1282.04L1280.05 119.052C1281.13 118.68 1281.68 117.924 1281.68 116.808C1281.68 114.876 1280.37 114.3 1277.8 114.3H1275.03V123H1276.55V119.34H1278.03C1278.19 119.34 1278.34 119.34 1278.49 119.328L1280.32 123ZM1278.02 115.524C1279.22 115.524 1280.12 115.68 1280.12 116.82C1280.12 117.864 1279.37 118.128 1278.07 118.128H1276.55V115.524H1278.02ZM1282.28 114.3L1285.29 123H1286.92L1289.9 114.3H1288.29L1286.14 121.2L1283.94 114.3H1282.28ZM1292.55 114.3H1291.02V123H1292.55V114.3ZM1300.51 120.108C1300.25 121.296 1299.41 121.908 1298.23 121.908C1296.84 121.908 1295.77 120.732 1295.77 118.62C1295.77 116.52 1296.86 115.392 1298.24 115.392C1299.37 115.392 1300.22 116.016 1300.49 117.192H1301.95C1301.6 115.248 1300.22 114.144 1298.29 114.144C1295.77 114.144 1294.2 115.884 1294.2 118.62C1294.2 121.344 1295.67 123.156 1298.22 123.156C1300.22 123.156 1301.61 122.052 1301.97 120.108H1300.51ZM1303.49 123H1309.65V121.716H1305.02V119.16H1309.4V117.9H1305.02V115.572H1309.65V114.3H1303.49V123Z" fill="#FEFEFB"/>
<path d="M1387.65 117.684L1396.31 109.039C1396.9 108.442 1397.68 108.114 1398.51 108.114C1399.35 108.114 1400.13 108.442 1400.72 109.039L1401.41 109.724L1402.75 108.383L1402.06 107.697C1401.11 106.743 1399.86 106.236 1398.51 106.236C1397.17 106.236 1395.92 106.743 1394.96 107.697L1386.31 116.342L1387.65 117.684Z" fill="#FEFEFB"/>
<path d="M1399.2 111.902L1397.86 110.561L1389.21 119.206C1387.98 120.428 1386.01 120.428 1384.79 119.206C1383.57 117.984 1383.57 116.016 1384.79 114.794L1392.25 107.341L1390.94 106L1383.48 113.453C1381.51 115.42 1381.51 118.58 1383.48 120.547C1384.43 121.501 1385.68 122.008 1387.03 122.008C1388.37 122.008 1389.62 121.501 1390.58 120.547L1399.2 111.902Z" fill="#FEFEFB"/>
<path d="M1407.82 113.452C1406.87 112.498 1405.61 111.991 1404.27 111.991C1402.93 111.991 1401.68 112.498 1400.72 113.452L1392.07 122.097L1393.41 123.438L1402.06 114.793C1403.29 113.571 1405.26 113.571 1406.48 114.793C1407.08 115.39 1407.4 116.165 1407.4 116.999C1407.4 117.834 1407.08 118.609 1406.48 119.205L1399.02 126.658L1400.36 127.999L1407.82 120.547C1409.79 118.579 1409.79 115.419 1407.82 113.452Z" fill="#FEFEFB"/>
<path d="M1403.62 116.314L1394.97 124.959C1393.74 126.182 1391.77 126.182 1390.55 124.959L1389.86 124.274L1388.55 125.615L1389.24 126.301C1390.19 127.255 1391.44 127.762 1392.79 127.762C1394.13 127.762 1395.38 127.255 1396.34 126.301L1404.99 117.656L1403.62 116.314Z" fill="#FEFEFB"/>
<rect x="1335" y="115" width="2" height="13" fill="#FEFEFB"/>
<rect x="1350" y="115" width="2" height="13" fill="#FEFEFB"/>
<rect x="1355" y="119" width="2" height="9" fill="#FEFEFB"/>
<rect x="1345" y="111" width="2" height="17" fill="#FEFEFB"/>
<rect x="1340" y="106" width="2" height="22" fill="#FEFEFB"/>
<rect x="0.5" y="0.5" width="1438" height="152" stroke="black"/>
<defs>
<clipPath id="clip0">
<rect width="22" height="22" fill="white" transform="translate(76 106)"/>
</clipPath>
</defs>
</svg>
